<svg id="Layer_1" data-name="Layer 1" xmlns="http://www.w3.org/2000/svg" viewBox="0 0 990.81 618.81"><defs><style>.cls-1{fill:#6e8f27;}</style></defs><title>1</title><path class="cls-1" d="M19.57,415.47c0-45.46,43.69-88.88,123.34-123H107.74C40.86,327.08,4.6,369.9,4.6,415.47c0,54.2,51.31,104.56,144.52,141.77,55.08,22,121.1,38,193.11,47.23a22.47,22.47,0,0,1,1.63-6.85,12.64,12.64,0,0,1,7.42-7.1c-73.51-8.89-140.84-24.89-196.61-47.19C67.53,508.54,19.57,463.13,19.57,415.47Z" transform="translate(-4.6 -7.24)"/><path class="cls-1" d="M959.31,415.47a71.16,71.16,0,0,1-.79,10.53h15.11a85.79,85.79,0,0,0,.65-10.53c0-45.57-36.29-88.39-103.17-123H835.94C915.59,326.59,959.31,370,959.31,415.47Z" transform="translate(-4.6 -7.24)"/><path class="cls-1" d="M446.44,536.17c.19-2.15,13.53-1.09,38.79-3.43,8.93-.81,22.87-2.15,22.9-4.22,0-3.45-41.08-5.69-41.16-11.54-.06-3.92,18.29-5.85,18.26-10.1,0-6.15-37.89-9.94-37.89-12.6s41.59-.57,41.84-4.44-39.42-9-39.36-14.7c.13-8.49,79.92-10.13,80.08-18.21.09-6.73-48.56-12-48.45-19.17.11-7.7,75.81-12.65,75.81-15.89-.08-2.45-43.72.35-44.83-8.93a3.5,3.5,0,0,1,.38-1.91c5.8-13.2,48.81-12.71,48.86-14.92,0-2.66-58.72-9.52-58.72-12.38.09-2.43,44.13-1.8,44.4-7.6.19-3.59-16.85-8.11-16.47-12.6a2.61,2.61,0,0,1,1.5-1.83c8.25-4.9,31-9.88,31.09-11.84.19-4-27.41-8.95-27.39-16.63,0-6.67,10-8.74,14.84-10.24,9.66-3,20-5.17,30-7.18a1.62,1.62,0,0,0,1.44-1.44,1.4,1.4,0,0,0-.46-1c-1.2-1.23-5.12-1.17-6.7-1.39-5.42-.74-10.89-.9-16.36-1.2a357.8,357.8,0,0,0-42.57.41c-6.48.41-13,.87-19.39,1.82-2.83.41-10.29.79-11.87,3.84a2.05,2.05,0,0,0-.16.55c-.35,4.79,28.31,10.21,28,14.48-.16,2.07-6.29,2.8-15.32,3.86-14.35,1.67-21.67.77-21.92,2.67-.51,3.73,26.93,10.75,26.6,17.89-.25,4.82-13.15,8.68-36.37,15.6-9.77,2.91-14.56,4-14.75,6.58-.44,7.11,34.62,12.61,34.57,22.24-.06,6.7-17,12.61-27.63,16.31-16,5.58-24.94,5.47-25.29,9.23-.63,6.78,28.64,13.53,28.34,22.05-.38,10.83-48.38,15-48.24,22.65.11,4.62,17.5,7.27,17.28,11.76-.1,3.51-10.53,3.84-10.86,7.87-.46,6,21.64,12.54,21.13,17.17-.17,1.5-2.53,2.26-18.27,5.75-8.41,1.87-11.21,2.42-11.43,4.08-.44,4.25,17.26,8.41,17.09,14.29-.16,4.55-11.13,8-19.92,8.11-7.38.14-19.66-1.93-20.37-8-.87-7,14.19-12.17,13.67-19.68-.73-11.54-37.29-13.77-37.29-20.31,0-5.47,25.53-8,25.53-12.82,0-6.23-45.08-8.27-45.38-16.41-.24-7.16,34.36-13,34.38-19.79,0-5.94-48.15-8.47-48.34-15.22-.14-6.18,39.77-12.6,39.2-17.59-.44-3.81-24.45-3.07-24.8-8.35-.28-3.82,12.16-7.41,11.87-10-.49-4.63-40.4,1.17-40.73-2.29s40-10.48,40-19.47c0-11.81-70-18.78-69.72-25.67.22-5.52,46-5.6,46.06-10.31,0-4.14-36.15-7.41-36.17-12.74,0-4.6,29.72-7.35,29.61-10.78-.05-3-23.19-3.84-34.27-6.32,0-.08-5.55.08-5.74-1.11-.36-2,12.87-4.41,12.82-7.49-.14-4.63-34.93-8.33-35-11.16,0-.93,3.75-2.48,9.14-4.3l472.75-.33,122.74.44a40.8,40.8,0,0,1-18-14.32c4.71.46,9.4.92,14.08,1.41-2.94-2.58-6-5.44-9-8.63-2.07-2.12-4-4.22-5.75-6.26,3.13,0,6.26.08,9.37.14a50.7,50.7,0,0,1-9.12-9.94,47.63,47.63,0,0,1-4.36-7.95c3.46.17,6.92.28,10.35.44a76.71,76.71,0,0,1-14.16-18.76c2.53-.08,5.07-.16,7.57-.27a75.88,75.88,0,0,1-8.57-12.9c1.66.05,3.32.11,5,.13a59.26,59.26,0,0,1-11.36-19.52,3.79,3.79,0,0,1-.19-.54c-.05.19-.1.35-.16.54a51.64,51.64,0,0,1-10.75,18.95c1.69.06,3.37.08,5.06.14a64.6,64.6,0,0,1-9.31,13.85c2.56-.13,5.09-.24,7.65-.38-1.39,2.21-3,4.55-4.87,7a81.32,81.32,0,0,1-9,9.72l11.46-1.8a82.61,82.61,0,0,1-6.54,6.75,72.29,72.29,0,0,1-6,5,73.58,73.58,0,0,1-6.32-5.17,69.91,69.91,0,0,1-6.29-6.54q6.58-.19,13.21-.43a100.62,100.62,0,0,1-10.26-8.06,98.16,98.16,0,0,1-9.12-9.23c5.33.84,10.67,1.63,16,2.45a110.18,110.18,0,0,1-19.35-22.84c3.54.22,7.1.38,10.67.57a89.44,89.44,0,0,1-13-18.94c2.34-.08,4.74-.14,7.05-.19a70.63,70.63,0,0,1-15-25.92c-.06-.24-.14-.46-.22-.71-.08.25-.16.49-.25.74a80.78,80.78,0,0,1-15.89,26.7c2.31,0,4.62-.13,6.94-.19a106.77,106.77,0,0,1-12,17.64c3.51.11,7.05.19,10.56.3a101.3,101.3,0,0,1-19.14,25.1Q692.42,147.88,635.93,77.5c-2.77-3.43-8.9-3.56-11.81-.21,0,0,0,0,0,0a.06.06,0,0,1-.05,0c-14.76,10.73-28.91,34.9-28.91,34.9-3.32,5.63-15.49,21-43.12,53.06l2.18,3.13,37.21,53.62Q571,199.52,550.67,177c-1.44-1.76-2.85-3.45-4.35-5.09A117.94,117.94,0,0,0,529,155.93c-3.32-2.48-5.83-4-7.79-5.28a50.13,50.13,0,0,1-7.37-5.44,77.94,77.94,0,0,1-14.3-17.75,50.06,50.06,0,0,1-5.25-10.18A44.63,44.63,0,0,0,488,105.57c-.76-1.09-4.44-5.74-19.65-20.91-.25-.49-.52-1-.79-1.49a158.49,158.49,0,0,0-32.8-41.24L423.19,31.55Q415.6,21.14,408,10.76c-3.35-4.58-10.86-4.71-14.4-.28,0,0,0,0-.06,0s0,.06,0,.06c-18,14.29-35.26,46.52-35.26,46.52-6.39,12-40.07,56.62-132.9,170.87-.32.41-.65.79-1,1.2-3.13-3.78-5.79-7.46-8.13-10.92,4.81.22,9.6.41,14.4.6a101.33,101.33,0,0,1-19.74-25.67c3.54-.11,7-.19,10.56-.3a108.61,108.61,0,0,1-12-17.64c2.32.06,4.63.14,7,.19a81.22,81.22,0,0,1-15.87-26.7l-.24-.74c-.08.25-.17.47-.25.71a70.63,70.63,0,0,1-15,25.92c2.34,0,4.71.11,7.05.19a88.37,88.37,0,0,1-13,18.94c3.54-.19,7.1-.35,10.67-.57A114.44,114.44,0,0,1,183,202.7,109.1,109.1,0,0,1,170.43,216c5.34-.82,10.65-1.61,16-2.45A98.93,98.93,0,0,1,167,230.85c4.44.16,8.82.3,13.23.43a70.28,70.28,0,0,1-6.31,6.54,64.57,64.57,0,0,1-6.32,5.17,72.29,72.29,0,0,1-6-5,77.25,77.25,0,0,1-6.51-6.75l11.46,1.8a78.14,78.14,0,0,1-9-9.72,83.14,83.14,0,0,1-4.87-7c2.53.14,5.09.25,7.62.38A66.5,66.5,0,0,1,151,202.92c1.71-.06,3.37-.08,5.09-.14a52.19,52.19,0,0,1-10.78-18.95c-.06-.19-.08-.35-.14-.54-.08.19-.13.38-.19.54a58.82,58.82,0,0,1-11.38,19.52c1.66,0,3.32-.08,5-.13a78.29,78.29,0,0,1-8.6,12.9c2.53.11,5,.19,7.57.27a73.18,73.18,0,0,1-5.53,8.85,75,75,0,0,1-8.63,9.91c3.46-.16,6.89-.27,10.35-.44a47.63,47.63,0,0,1-4.36,7.95,49.79,49.79,0,0,1-9.12,9.94c3.1-.06,6.26-.11,9.39-.14-1.77,2-3.67,4.14-5.71,6.26-3.11,3.19-6.13,6-9.07,8.63,4.71-.49,9.39-1,14.07-1.41a40.65,40.65,0,0,1-18,14.32q43.56,0,87.14-.06c1.63,2,8.46,4.36,14.12,6.32,22.9,7.81,30.3,9,30.49,11.87.09,1.28-1.28,3.18-8.08,5.82-.71.3-1.47.57-2.26.87l-1.58.79c-6.07,3-12,5.77-11.68,8.41,1,7.44,51,4.77,51.18,8.39.11,2-14.7,5.2-24.55,6.78-10.21,1.63-15.85,1.58-15.93,3-.19,3.08,27.52,6.72,27.49,11.22-.08,5.06-35.33,6-35.41,10.26-.16,6.51,80.66,14.7,80.52,18.37-.13,3.19-62.39.79-62.64,6.16-.13,2.91,18.27,5.85,18.13,10.07-.11,5-26.4,5.25-26.62,9.55-.33,7.27,74.21,17.81,74,23.28-.27,4.9-60.7,3-60.78,6.45,0,2.83,39.82,5.61,39.85,11.73,0,6.54-35.72,11.16-35.42,14.62.36,4,47.72,1.42,50.64,11.79a5.78,5.78,0,0,1,.24,1.74c-.68,10.05-37.21,10.65-37.21,13.37,0,4,79.54,5.06,79.71,11,.16,4.84-50.64,11.87-50.45,14.48.14,2.15,33.43,1.06,69.39,7.35,7.65,1.33,16.42,3.24,16.47,6.1,0,2.34-5.82,4.41-9.28,5.52-25.73,8.44-56.76,10.87-56.79,11.95,0,1.61,16.55,4.77,17.78,5,10,2.42,20.06,4.68,30.13,6.59,14.6,2.78,14.92,4.35,14.92,4.79.08,2.64-7.92,3.95-8.9,4.25a237.73,237.73,0,0,1-24.25,4.9c-3.76.59-7.52,1.11-11.3,1.66-.63,0-1.09.79-1.06,1.6a2.09,2.09,0,0,0,1.06,1.53c3.4,2.37,73.39-3.7,79.19,10A7.24,7.24,0,0,1,409,583c-2.45,5.82-11.9,4.24-30.41,8-2.72.54-5.17,1.14-7.32,1.77,0,0,0,0,0,0-8.41,2.37-12.63,5.28-14.21,9.53a5.45,5.45,0,0,0-.38,1.71,4.55,4.55,0,0,0,.46,2.26c6.32,14.05,77.26,21.86,82.32,19.3.49-.27,1.94-1,2.1-2.26,0-.33-.05-1.47-2.5-3-4.47-2.88-14.27-5.69-21.67-8.79h0c-5-2.1-8.9-4.28-9.31-6.67-.33-1.93,1.63-3.76,3.35-5.39a18.43,18.43,0,0,1,4.35-3c9.42-4.79,22.82-2.62,29.87-3.27,3.62-.33,7.29-.63,10.72-1.93a4.65,4.65,0,0,0,2.45-1.74c2.13-3.19-4.46-9-6.23-10.89s-6.64-5.69-6.45-8.66c.19-2.18,26.57-4.08,44.45-11.68.95-.43,2.7-1.17,2.75-2.42C493.67,549,446.11,540.26,446.44,536.17ZM762.68,218.24c-1.93,2.86-4.14,5.91-6.59,9-.32-.4-.65-.79-1-1.19-1.93-2.43-3.89-4.85-5.82-7.27C753.73,218.63,758.22,218.43,762.68,218.24ZM629,89.07q17.68,26.63,35.36,53.3c1.56-1.74,3.14-3.45,4.69-5.19q14.28,16.24,28.69,33.53,24.54,29.49,46.14,58.07L734,224c-1-.49-2.07-1-3.15-1.53-1.53-.73-3.13-1.52-4.88-2.37L723.84,219c-.74-.35-1.5-.73-2.32-1.11-1.22-.63-2.5-1.23-3.84-1.88-.19-.08-.38-.16-.6-.27l-3.62-1.8c-.43-.19-.87-.41-1.33-.63-.84-.4-1.74-.84-2.64-1.3l-1.42-.68c-1-.44-1.9-.93-2.88-1.42s-2-1-3.11-1.5-2.09-1-3.21-1.58-2.26-1.08-3.43-1.66l-3.59-1.74-3.78-1.85L682,198.67l-2.12-1c-2.86-1.42-5.88-2.86-9-4.41-.79-.38-1.6-.79-2.42-1.17l-2.45-1.2c-1.66-.82-3.37-1.64-5.12-2.51-.87-.4-1.74-.84-2.64-1.28,9.09-.62,18.21-1.28,27.31-1.93l-41.33-26.43-15.79-38.3c-11.1,2.88-22.18,5.8-33.29,8.68h0Q612.06,109.08,629,89.07ZM590.2,159.39s-.49-.79-.82-1.44a5.66,5.66,0,0,1-.29-.77,6,6,0,0,1-.22-1,12.62,12.62,0,0,1-.08-3c0-.68.08-1.45.16-2.18a20.71,20.71,0,0,1,.33-2.29,11.29,11.29,0,0,1,.19-1.14c0-.38.13-.76.19-1.14s.16-.77.21-1.15.17-.71.22-1c.22-1,.44-1.94.66-2.7.27-1.06.46-1.85.57-2.2q21,22.82,42.11,45.68l-34.82-6.18a8.06,8.06,0,0,0-.21-1.09c-1-4.79-2-9.61-4.8-13.5A50.26,50.26,0,0,1,590.2,159.39ZM489.51,232.94c-8.47-.51-16.91-1.06-25.37-1.55A36.21,36.21,0,0,0,459,224.8l-.76-.76c-.27-.27-.54-.52-.82-.76s-.57-.49-.87-.76c-.6-.49-1.25-1-1.9-1.5-.33-.24-.68-.49-1-.71s-.7-.46-1.06-.68-.76-.49-1.17-.71c-.73-.4-1.47-.79-2.18-1.14-.54-.27-1.11-.52-1.66-.73a35.87,35.87,0,0,0-3.56-1.26c-.58-.16-1.12-.32-1.66-.43-.28-.08-.55-.14-.79-.19a1.28,1.28,0,0,0-.33-.06l-.44-.11-1.38-.24-1.26-.16c.6.7,1.26,1.47,1.88,2.31.22.27.44.57.66.87q1.31,1.8,2.66,3.92c.9,1.44,1.8,3,2.67,4.68s1.69,3.51,2.45,5.45a66.24,66.24,0,0,1,2.8,9.06c.22.9.41,1.8.55,2.67s.3,1.69.41,2.48c-.47,0-1,.05-1.47.05s-1,0-1.58,0c-1,0-2,0-3.1-.08a7.13,7.13,0,0,1-.79,0c-.25,0-.49,0-.77,0-.7-.06-1.41-.11-2.15-.2a10.83,10.83,0,0,1-1.66-.19,15.14,15.14,0,0,1-1.63-.21c-.06,0-.11,0-.16,0-.55-.05-1.09-.16-1.66-.27s-1.18-.22-1.77-.33l-2.18-.46c-.95-.25-1.88-.46-2.75-.74s-1.77-.54-2.59-.81-1.63-.55-2.39-.85-1.53-.6-2.24-.9a2.49,2.49,0,0,0,0-.4c0-.33-.08-.88-.19-1.58a2.26,2.26,0,0,1,0-.47c0-.16-.06-.35-.09-.54a5.76,5.76,0,0,0-.11-.79,1.23,1.23,0,0,1,0-.27c-.08-.49-.17-1-.25-1.55,0,0,0-.06,0-.09-.05-.29-.11-.59-.16-.92-.08-.57-.19-1.14-.3-1.74-.19-1.09-.41-2.29-.65-3.54-.11-.49-.22-1-.33-1.5s-.22-1.12-.35-1.69c-.22-1-.47-2-.71-3.07a2,2,0,0,1-.11-.44s0-.13-.06-.19c-.27-1.12-.57-2.26-.89-3.43-.19-.71-.41-1.39-.63-2.1s-.41-1.41-.65-2.12c-.44-1.41-.93-2.86-1.45-4.27a85.23,85.23,0,0,0-4.87-11.46c-.27-.49-.54-1-.84-1.47s-.57-1-.9-1.5c-.63-1-1.31-2-2.07-3-.3-.41-.6-.82-.93-1.23s-.68-.87-1-1.22-.41-.49-.6-.71-.25-.27-.38-.41c-.3-.35-.6-.68-.9-1a2.28,2.28,0,0,0-.22-.22c-.16-.19-.33-.35-.49-.51l-.49-.52h0a.19.19,0,0,0-.1-.14.23.23,0,0,1-.11-.11l-.28-.27c-.21-.22-.4-.46-.62-.68a28.23,28.23,0,0,1-2-2.53c-3.19-4.65-5.72-11.3-5.69-21h0l2.61.92c.9.33,1.77.68,2.72,1.06h0c1.88.71,3.84,1.56,5.85,2.45s4.08,1.91,6.24,3,4.32,2.28,6.53,3.62c1.66,1,3.35,2.07,5.06,3.18.63.41,1.25.82,1.88,1.25,1.09.77,2.21,1.53,3.29,2.35.79.57,1.61,1.17,2.4,1.79l1.06.82c.9.71,1.77,1.41,2.61,2.15,1.72,1.41,3.33,2.86,4.88,4.27s3,2.86,4.35,4.25c.68.71,1.36,1.39,2,2.1,1.31,1.38,2.53,2.75,3.68,4.08.13.16.27.35.4.54.3.38.66.79,1.07,1.26a7.11,7.11,0,0,0,.65.73l.73.76c.55.57,1.15,1.15,1.83,1.75.24.24.51.46.79.7s.68.57,1,.85.74.57,1.12.87,1,.71,1.49,1.06c.3.19.63.41,1,.6a38.37,38.37,0,0,0,5.9,3.08c.79.29,1.61.62,2.45.92l1.07.33c.51.16,1,.3,1.52.43,1.55.41,2.86.66,3.68.79a3.63,3.63,0,0,0,.46.06l.3,0s.05,0,.08,0a.44.44,0,0,1,.16,0h.06c.05,0,.11,0,.16.06l.3.08a.18.18,0,0,0,.11,0s.05,0,.11.05a.52.52,0,0,1,.19.06.31.31,0,0,1,.13,0,.39.39,0,0,1,.14.06,12.79,12.79,0,0,1,1.55.6,1.88,1.88,0,0,1,.41.19v0l.22.11c.05.05.13.05.22.08l0,0c.19.08.38.16.6.27,0,0,0,0,.06,0l.21.08c.25.13.52.24.82.38s.49.22.74.35.43.22.65.3a1.16,1.16,0,0,0,.27.14c.52.24,1.06.52,1.64.79l1.93.92a.91.91,0,0,0,.13.08l2.32,1.15c.49.24,1,.49,1.52.76,1,.54,2.15,1.09,3.32,1.72.6.29,1.2.59,1.83.92,3.13,1.61,6.67,3.43,10.64,5.55,1.61.85,3.27,1.72,5,2.67.87.46,1.77.93,2.67,1.42.7.41,1.41.79,2.15,1.17,0,0,0,0,.05,0ZM313.46,161c.14-.24.3-.46.44-.68q.57-.9,1.14-1.71c.38-.55.73-1.09,1.09-1.61v0c.38-.51.73-1,1.09-1.52l.27-.35c1.25-1.69,2.48-3.27,3.7-4.71.41-.49.82-1,1.23-1.42.81-.93,1.63-1.82,2.45-2.64.35-.38.7-.74,1.09-1.09.7-.71,1.41-1.39,2.12-2s1.39-1.26,2.07-1.85h0c.68-.6,1.37-1.12,2.05-1.64a60.23,60.23,0,0,1,7.07-4.79c3.3-1.93,6.51-3.37,9.56-4.85,2.18-1.06,4.3-2.12,6.37-3.37.52-.3,1-.63,1.5-1,.21-.14.46-.3.68-.47.54-.38,1.09-.76,1.63-1.19a2.35,2.35,0,0,1,.25-.19c.46-.36.89-.74,1.36-1.15s1.06-1,1.57-1.49a15.61,15.61,0,0,0,1.31-1.39l.63-.71c.3-.35.62-.74.92-1.14l.33-.41a2.13,2.13,0,0,1,.22-.27c.43-.58.81-1.12,1.14-1.64,2.67-4,3.13-7,7-13.94A95.13,95.13,0,0,1,393,77.75c.54.79,1.09,1.55,1.58,2.29.22.3.41.57.6.87.81,1.14,1.55,2.2,2.26,3.24v0c.21.33.43.63.68,1s.41.6.6.89c.43.6.81,1.2,1.19,1.75v0c.38.55.77,1.09,1.09,1.58v0l.52.76,1.42,2.13c.16.24.29.46.46.68s.24.38.38.57l.41.62c.11.2.24.36.35.55.25.38.49.73.71,1.09a.6.6,0,0,1,.14.22s.05,0,.05.08a0,0,0,0,1,0,0,0,0,0,0,1,0,0c.11.22.25.41.36.6s.22.3.3.44.19.3.27.43.33.55.49.79c.3.49.57.93.79,1.31s.46.79.65,1.09a5.35,5.35,0,0,1,.33.57,4.23,4.23,0,0,1,.35.68h0v0c.3.68.54,1.33.79,2a132.63,132.63,0,0,1,4.38,13.26c.55,2,1,4,1.39,5.74s.74,3.49,1,5c.54-4.93,1.11-9.88,1.66-14.84Q419.62,101,421,88.72c-1.88-2.34-3.79-4.71-5.66-7q-5.85-7.31-11.74-14.59c-.19-1.8-.38-3.54-.57-5.23,0-.11,0-.22,0-.32-.16-1.58-.32-3.11-.49-4.61-.19-1.87-.38-3.67-.57-5.41l-.24-2.29c-.06-.41-.08-.79-.14-1.17-.08-.82-.16-1.63-.24-2.42-.14-1.17-.25-2.29-.39-3.38s-.24-2.34-.35-3.46-.22-2.12-.33-3.1-.21-1.93-.29-2.8-.2-1.69-.28-2.45c-.13-1.15-.24-2.15-.32-3.05,0-.44-.09-.85-.14-1.23s-.08-.73-.11-1c-.08-.63-.14-1.12-.16-1.5s-.08-.71-.08-.71l0,0,.11.11c.11.08.27.22.49.41a1,1,0,0,1,.17.13l.13.14c.14.11.27.25.41.38.3.25.65.57,1,.93.71.6,1.53,1.36,2.51,2.23.14.14.27.24.43.41a9.14,9.14,0,0,1,.82.73l.08.08,1.47,1.31c.55.46,1.09,1,1.69,1.5L422.35,44c.95.87,2,1.77,3,2.67.51.46,1,.9,1.52,1.39s1,.9,1.58,1.39c1.77,1.6,3.54,3.26,5.25,5,2.59,2.56,5.09,5.22,7.54,8,1.64,1.88,3.22,3.78,4.77,5.77.79,1,1.55,2,2.31,3,1,1.31,1.93,2.64,2.89,4-1-1.37-1.94-2.7-2.92-4,2,2.64,3.87,5.34,5.69,8.14.93,1.42,1.8,2.86,2.67,4.3.44.71.87,1.47,1.28,2.21s.87,1.5,1.28,2.23c.14.25.25.46.38.74s.25.49.38.7c.22.44.47.85.68,1.28,16.8,16.69,19.6,20.67,19.6,20.67v0a24.86,24.86,0,0,1,1.5,2.21,6.43,6.43,0,0,1,.6,1,25.82,25.82,0,0,1,1.77,3.32,6.54,6.54,0,0,1,.33.74l.3.7c.21.49.38,1,.57,1.42v0c.27.73.57,1.47.9,2.28.13.28.24.58.38.87s.27.58.4.9a73,73,0,0,0,4.47,8,91.81,91.81,0,0,0,13.23,17.09c.43.46.92.93,1.39,1.36a19.08,19.08,0,0,0,1.47,1.36,52,52,0,0,0,7.89,5.94l1.06.65.71.46c.49.3,1,.63,1.53,1,1.33.88,2.83,1.91,4.62,3.24.63.47,1.28,1,2,1.5.11.08.19.19.3.27h0c.63.49,1.22,1,1.91,1.56h0c.38.32.71.62,1.09.95a1,1,0,0,1,.17.13s0,0,0,0l.11.11.16.14a5,5,0,0,1,.44.38l.62.54c.87.76,1.77,1.58,2.67,2.42l.33.33c.81.76,1.6,1.55,2.42,2.4,0,0,0,0,0,0l1.39,1.45c.16.16.3.3.46.49h0l0,.05s0,0,0,0l.08.08.06.05a4.57,4.57,0,0,1,.35.39c.19.21.38.4.57.62,0,0,0,0,0,.08a1.15,1.15,0,0,1,.22.22c.32.36.65.68,1,1.06.22.22.41.47.6.68s.3.36.46.52.3.33.44.52c.43.52.84,1,1.28,1.52l1.28,1.55-.22.06a66.39,66.39,0,0,1-7.27,1.41s0,0,0,0c-.77.08-1.47.14-2.18.19-.38.06-.76.11-1.15.14-.21,0-.43,0-.59,0h-.17c-.27,0-.54,0-.81,0-.55,0-1,0-1.5,0a5.94,5.94,0,0,0,.73,0h-.76c-.6,0-1.2,0-1.77,0-.22,0-.43,0-.65,0l-1-.09a13.33,13.33,0,0,1-1.6-.16c-.08,0-.14,0-.19,0a.86.86,0,0,1-.27-.05c-.36,0-.71-.08-1-.14l-.11,0a10.24,10.24,0,0,1-1.25-.25c-.49-.08-1-.19-1.39-.3a10.07,10.07,0,0,1-1-.27,7,7,0,0,1-.73-.22,5.83,5.83,0,0,1-.71-.22l-1-.32c-.58-.19-1.15-.41-1.75-.63a1.57,1.57,0,0,1-.35-.11c-.35-.13-.74-.24-1.12-.35a18,18,0,0,0-5.28-.87,12.72,12.72,0,0,0-2.64.3c-.41.08-.81.13-1.22.24a6.32,6.32,0,0,0-.9.3c-.25.08-.49.19-.71.27s-.46.22-.65.33a.27.27,0,0,1-.14,0c-.13.09-.27.17-.41.25s0,0-.05,0a4.84,4.84,0,0,0-.44.3l-.84.59c-.27.22-.57.41-.87.63-.46.3-1,.63-1.58.95a18.65,18.65,0,0,1-2.23,1,5.48,5.48,0,0,1-.68.22,1.42,1.42,0,0,1-.33.11,23.44,23.44,0,0,1-6.75,1.06,7.49,7.49,0,0,1-.82,0,8.38,8.38,0,0,1-.84,0l-.85-.08a11.57,11.57,0,0,1-1.71-.36l-.87-.24-.44-.16a1.55,1.55,0,0,1-.41-.17s0,0-.05,0a.76.76,0,0,1-.22-.11l-.57-.25a2.29,2.29,0,0,1-.27-.13h0s0,0-.05,0l-.17-.08s0,0,0,0a0,0,0,0,1,0,0,5,5,0,0,1-.79-.46c-.06,0-.11-.08-.16-.11a2.41,2.41,0,0,1-.44-.33s0,0-.05,0l-.36-.28-.35-.32a6.82,6.82,0,0,0,.71.6,8.2,8.2,0,0,1-.74-.66h0a3.85,3.85,0,0,1-.35-.35c-.14-.14-.25-.27-.38-.41s-.3-.33-.46-.49l-.28-.33c-.24-.3-.49-.59-.73-.92-.52-.65-1.06-1.36-1.66-2.15-.38-.46-.74-.87-1.09-1.31-.6-.71-1.14-1.36-1.72-2-.3-.3-.57-.6-.84-.9s-.52-.57-.79-.81-.52-.55-.76-.79l-1.47-1.39-.08-.08a5.77,5.77,0,0,0-.63-.52c-.46-.41-.9-.76-1.33-1.12-.22-.19-.44-.35-.63-.51-.41-.33-.82-.63-1.2-.9-.19-.17-.38-.3-.57-.44-.71-.51-1.36-1-2-1.47l-.52-.41a2.07,2.07,0,0,1-.49-.38c-.32-.27-.62-.54-.92-.81a11.29,11.29,0,0,1-1.47-1.61,1.78,1.78,0,0,1-.33-.46,8.09,8.09,0,0,1-.46-.68,6.24,6.24,0,0,1-.49-.87c-.08-.14-.14-.28-.22-.41a13.05,13.05,0,0,1-.54-1.25,14.33,14.33,0,0,1-1-6.46c0-.35,0-.7,0-1.09s0-.68,0-1.06,0-.76,0-1.17,0-.6,0-1a.74.74,0,0,0,0-.27,5.08,5.08,0,0,0-.08-.93c0-.33-.05-.68-.11-1s-.08-.68-.16-1.06v0c-.11-.74-.25-1.55-.44-2.45s-.38-1.66-.57-2.45-.41-1.58-.63-2.32a59.59,59.59,0,0,0-2.85-7.62c-.44-.95-.87-1.85-1.28-2.64-.14-.27-.27-.52-.41-.76v0h0l-3,31.22c-1.28-.3-2.48-.57-3.62-.87s-2.26-.57-3.3-.87l-1.79-.55c-.58-.19-1.12-.35-1.66-.51-.71-.22-1.39-.47-2-.69a4.94,4.94,0,0,0-.49-.19c-.33-.1-.62-.21-.9-.32s-.81-.33-1.19-.47l-2-.78a.15.15,0,0,1-.11,0s-.08,0-.11-.06l-.6-.24c-.84-.33-1.55-.63-2.31-.95l-1.31-.55c-.84-.35-1.82-.73-3.1-1.22l-2.59-1-1.11-.4-2-.71c-.92-.33-1.77-.66-2.64-1-1.39-.57-2.8-1.23-4.6-2.15-.71-.38-1.39-.76-2-1.12s-1-.57-1.45-.87-.79-.46-1.14-.68c-.52-.32-1-.65-1.47-1-1.12-.76-2.07-1.5-2.91-2.15-.3-.27-.63-.54-.93-.79s-.6-.49-.9-.71l-.81-.65c-.28-.22-.55-.43-.82-.62-.44-.33-.93-.63-1.42-.93-.19-.11-.35-.22-.57-.33a6.28,6.28,0,0,0-.65-.3c-.27-.11-.57-.24-.87-.35a16.43,16.43,0,0,0-2.64-.76c-.47-.11-.9-.19-1.34-.25s-.76-.11-1.11-.13a4.58,4.58,0,0,0-.9-.09,3.54,3.54,0,0,0-.46,0h-.19a4.86,4.86,0,0,0-.66,0c-.49,0-1,0-1.5,0s-.78.06-1.19.11c-1.42.17-2.89.44-4.52.79-.6.14-1.2.27-1.85.44l-5.34,1.39c-.33.11-.68.16-1,.27-6.56,1.77-17,4.76-27.84,12.49l-1.26.93c-.21.14-.4.3-.6.46a2.1,2.1,0,0,0-.3.22,1.74,1.74,0,0,0-.27.22l-1,.76-1,.76c-.32.27-.65.55-1,.79a4.56,4.56,0,0,1-.43.36c-.38.29-.74.59-1.12.92-.84.68-1.69,1.34-2.56,1.93a28.65,28.65,0,0,1-2.58,1.69l-.47.25a.62.62,0,0,1-.21.13l-.25.11v0l-.35.16a6,6,0,0,1-.63.3l-1.06.46c-.38.17-.74.3-1.12.44s-.79.27-1.19.41c-.82.27-1.64.49-2.43.68a1.42,1.42,0,0,1-.22.05c-.49.11-1,.22-1.49.3-.08,0-.19,0-.27.06-.66.11-1.31.21-1.91.27-.44.05-.87.11-1.28.14s-.57.05-.84.05-.74.05-1.09.05-.76,0-1.12,0c-.71,0-1.33,0-1.93-.05C312.43,162.68,312.92,161.84,313.46,161Z" transform="translate(-4.6 -7.24)"/><path class="cls-1" d="M694,417c10.76-3.55,22-4.09,33-4.82,5.68-.38,11.36-.82,17-1.54,2.91-.39,3-2.09,3-2.55.05-4.92-32.72-8.06-32.59-12.2,0-.75,1.1-1.27,1.6-1.47,11.71-5.07,28.76-3.94,45.22-6.36,1.25-.18,4.35-.7,4.38-1.68.12-3.16-24.56-4.71-24.54-9.63,0-.92,1.15-1.75,9.38-5,13.41-5.33,18.19-6.31,18.14-7.57,0-1.78-9.51-2.11-27.37-5.05-9-1.44-16.33-2.65-16.33-3.5s8.48-1.75,47.6-1.21c.52-.18,1.25-.49,1.3-1,.32-3.55-30-9.6-29.84-14.45.2-5.53,40.09-7.34,40.14-10.84,0-3.25-33.2-7.45-33.2-9.95,0-1.32,6.24-1.49,7-1.56,5-.46,10-.56,15-1.13,2-.23,4-.49,5.91-.83.47-.08,4-1,2.2-1.8-4.13-1.92-9.77-2.25-14.23-2.8a124,124,0,0,0-15.29-.9,187.18,187.18,0,0,0-30.25,2.77,95,95,0,0,0-10,2c-2.38.67-5.05,1.76-5,4.8.07,5.22,20.85,8.35,20.87,13.24,0,6.31-35.67,10.9-35.82,18.44-.12,6.54,26.29,10.74,26.09,16.53-.25,7.06-39.82,8.06-40.09,15.71-.2,5.69,21.63,9.5,21.58,16.5-.1,9.07-36.72,12-37.22,23.54-.27,7.08,13.28,11.28,12.71,15.76-1.05,7.87-45.15,5-45.55-2-.25-4.51,17.31-8.47,17-13-.5-5.87-30.52-4-30.84-8.94-.33-4.5,24.29-9.63,24-14.86-.28-6.05-33.67-6.15-33.79-11.38-.18-4.94,27.63-9.86,27.41-13.18-.23-3-21.79-1.31-22.09-4.94-.22-2.89,13.26-6.62,13-8.81-.29-2.85-27.16,2.45-28.49-1.67-1.5-4.66,33.09-16.11,31.54-25.28-.15-.84-.91-3.56-12.24-6.92-25.45-7.55-50.05-2.25-50,0,0,1.23,7.33.33,17.29,5.62,4.39,2.33,11.4,6.06,11.24,10.28-.27,7.24-21.52,9.14-21.48,15.27.05,7,24.63,10.4,24.49,16.53-.13,5.25-18.24,6.87-18.31,11.87-.1,5.89,25.26,9.32,25.23,15.22s-24.66,7.9-24.73,14.26c0,1.16.8,3.32,14.43,9.71,15.08,7,21.43,8.13,21.43,10.3,0,5.07-26.83,10.19-26.76,13.41.05,4.17,51.05,1.19,51.3,7.42.1,2.29-7.68,4.73-14.41,6.9-18.61,5.89-31.54,5.07-31.61,6.77-.13,3,40.64,7.29,40.57,11.77,0,3.58-26.67,4.89-26.67,7.08,0,3.34,60.71,3,60.86,7.85.1,3.22-16.36,6-16.26,8.94.13,4.3,47.1,5.58,47.65-1.34.28-3.56-14.13-7.86-13.66-11.72.26-2.09,4.76-2.16,15.51-4.79,9.16-2.24,14.23-3.48,14.31-5.35.15-4.28-27.19-8.14-27-12,.07-2.16,9.13-3.55,22.21-4.94,13.38-1.39,11.95-4.25,12-5.33.1-2.65-30.94-4.09-30.84-8.16,0-3.12,22.94-4.12,22.94-6.7s-23.86-3.14-24-6.72c-.1-3.37,31.34-5.87,31.24-8.86-.13-3.32-22.14-3.29-24.22-3.5-4.17-.28-9.6.34-13.55-1.7C677,422.27,691.77,417.77,694,417Z" transform="translate(-4.6 -7.24)"/><path class="cls-1" d="M526.91,73.79a46.12,46.12,0,0,1,8.17,1.32c2.64.58,4,1,4.92,2.23.13.16,1.61,2.11,1,4-.82,2.35-4.41,2.43-4.39,3.74,0,.73,1.14,1.26,3,2.13a13.34,13.34,0,0,0,4.06,1.31c1.44.2,4.57.63,5.39-.72s-2-3.76-1.12-5.56c.14-.27.65-1.08,3.43-1.47a18.35,18.35,0,0,1,8.32.86,57.63,57.63,0,0,1,12.88,6.33,26,26,0,0,0-3.14-6c-3.27-4.07-8.48-5.92-13.45-6.9-.8-.16-1.59-.27-2.4-.39a3,3,0,0,1-1.95-.88c-.3-.36-.27-.54-1-3-.89-3.13-1.07-3.28-1.24-3.36-1.32-.6-2.78,3.22-6.3,4-1.31.28-3.15-.32-6.79-1.52a23.85,23.85,0,0,0-3.13-1.11,18.07,18.07,0,0,0-2.93-.41c-2.35-.12-7.74,1.66-13.66,5.94A51.54,51.54,0,0,1,526.91,73.79Z" transform="translate(-4.6 -7.24)"/><path class="cls-1" d="M535.54,120.68c3.38.54,7.08.73,10.31-.56A10.49,10.49,0,0,0,549,118c.18-.17,1.92-1.65,1.2-1.87a.86.86,0,0,0-.49.07,15,15,0,0,1-4.57.89,16.92,16.92,0,0,1-5.69-.87,21.16,21.16,0,0,1-2.35-.92,8.63,8.63,0,0,1-.35-2.31c0-.28.08-1.22-.47-1.6l-.05,0c-.55-.32-1.38.27-2.89,1.21l-1.67,1c-2.41.6-5-1-10.25-3.85-.74-.39-2-1.06-3.57-1.87a14.31,14.31,0,0,0,2.43,4.87c1.82,2.35,3.83,3.4,6.13,4.61a18.67,18.67,0,0,0,3.26,1.26,2.51,2.51,0,0,1,0,1.69c-.69,1.7-3.89,2.72-3.92,3.68,0,.54.8,1,2.12,1.67a9.74,9.74,0,0,0,2.94,1.1c1,.19,3.33.61,4-.35s-.79-3.92-.06-5.2A1.49,1.49,0,0,1,535.54,120.68Z" transform="translate(-4.6 -7.24)"/><path class="cls-1" d="M740.48,501.4c-1,1.14-2.79,2-5.43,2.55l.21,5.33Q743.93,509,760,509q15,0,29.13.41l2.61-21.61-5.32-.63a24.92,24.92,0,0,1-2.93,8,21.85,21.85,0,0,1-4.8,6.06H757.6q-.93-5.85-.93-25.17L777,477.64l1.36-9.19-21.72.52a159.09,159.09,0,0,1,1.25-20.68c0-.13,0-.38.05-.73a6.66,6.66,0,0,0,0-.73h17.23a21,21,0,0,1,8.25,12.22l5.33-.63-2.4-19.63q-12,.42-26.84.42-12.54,0-24.12-.32l-.63,5.33,7.41,2.09q1.37,7.41,1.36,25.27,0,18.29-1,24.44A11.37,11.37,0,0,1,740.48,501.4Z" transform="translate(-4.6 -7.24)"/><path class="cls-1" d="M842.61,509.28q5-.31,10-.31t10.34.31v-5.53a22.5,22.5,0,0,1-5.17-1.41,20.9,20.9,0,0,1-5.12-3.71,53.48,53.48,0,0,1-7-8.36q-3.93-5.53-9.66-14.82c.13-.07.6-.28,1.4-.63a12,12,0,0,0,1.83-.94q11.81-5.75,11.8-16.29,0-9.19-6.63-14t-18.33-4.8q-2.19,0-6.73.16t-8.41.15q-10.44,0-14.1-.21l-.62,5.33,7.41,2.09q1.37,7.41,1.36,25.27,0,18.69-1,24.86a9.66,9.66,0,0,1-2.14,5.11q-1.51,1.57-5.37,2.4l.21,5.33q5.12-.31,15.45-.31t15.25.31l.62-5.43-8.77-1.78q-1.14-6.15-1.15-22.76c2.51-.14,4.35-.28,5.54-.42A261.58,261.58,0,0,0,842.61,509.28Zm-24.54-38.43q0-15,1.26-22.56a9,9,0,0,1,.21-1.67H823q6.38,0,10,3.19a11,11,0,0,1,3.65,8.72q0,8.78-8,12.11a29.87,29.87,0,0,1-5.64.42C821.94,471.06,820.3,471,818.07,470.85Z" transform="translate(-4.6 -7.24)"/><path class="cls-1" d="M917.81,509.07l7.73-.1V471.69a180.35,180.35,0,0,1,.73-19.53c.34-2.58,1.08-4.42,2.19-5.54s3.06-1.91,5.85-2.4l-.21-5.33q-4.38.32-12,.32-7.83,0-13.16-.32l-.62,5.12,7.93,2.3q1.26,8,1.25,26.63c0,3.34-.06,7.24-.2,11.69L881.78,439.1H863.92l-.62,5.12,7.72,2.09q1.47,9.09,1.46,27.05,0,16.08-1.14,22.76-.74,3.87-2.3,5.38c-1,1-2.92,1.83-5.64,2.45l.21,5.33q5-.31,13.47-.31,7.2,0,12.22.31l.62-5.22-8-1.88q-1.35-9.62-1.35-29V460A546.59,546.59,0,0,1,917.81,509.07Z" transform="translate(-4.6 -7.24)"/><path class="cls-1" d="M939.12,438.89l-.63,5.33,7.41,2.09q1.36,7.41,1.36,25.27,0,18.29-1,24.44a11.37,11.37,0,0,1-2.09,5.38c-1,1.14-2.79,2-5.43,2.55l.21,5.33q8.65-.31,24.75-.31,15,0,29.13.41l2.61-21.61-5.32-.63a24.69,24.69,0,0,1-2.93,8,21.85,21.85,0,0,1-4.8,6.06H961.26q-.94-5.85-1-25.17l20.37,1.57,1.36-9.19-21.73.52a160.49,160.49,0,0,1,1.26-20.68,6.81,6.81,0,0,1,0-.73c0-.35,0-.59,0-.73H978.9a21,21,0,0,1,8.25,12.22l5.33-.63-2.4-19.63q-12,.42-26.84.42Q950.7,439.21,939.12,438.89Z" transform="translate(-4.6 -7.24)"/><path class="cls-1" d="M548.92,536.53A48,48,0,0,0,531,540q-26.65,10.53-26.65,40.86,0,19.8,10.66,31.66T543,624.35a47.66,47.66,0,0,0,17.76-3.55q26.78-10.41,26.78-40.87,0-19.8-10.66-31.6T548.92,536.53ZM565,602q-3.81,8.06-10.41,11.61c-.84.09-2.07.13-3.68.13q-13.58,0-20.75-9.27T523,578.66q0-11.8,3.75-19.86t10.47-11.61c.84-.08,2.07-.13,3.68-.13q13.58,0,20.74,9.27t7.18,25.76Q568.85,593.9,565,602Z" transform="translate(-4.6 -7.24)"/><path class="cls-1" d="M662.25,548.14a20,20,0,0,1,8.51-3.87l-.39-6.6q-4.18.39-14,.38-10,0-15.6-.38l-.77,6.22,9,2.41q-5.2,12.44-15.74,32.49-6.6-10-11.23-18.72t-4.63-11a3.69,3.69,0,0,1,1.71-3.36c1.14-.72,3.24-1.2,6.28-1.46l-.25-6.6q-8.38.39-19.67.38-14.22,0-19.17-.38l-.76,6.48,7.49,2.15q12.43,15.62,29.06,45.31a113.29,113.29,0,0,1-1.27,16.62,10.56,10.56,0,0,1-2.66,5.65q-1.9,1.85-6.35,2.86l.26,6.47q6.72-.39,18.27-.38,12.32,0,18.27.38l.77-6.47-9.4-2.42q-1.51-7.86-1.77-24.87,10.79-21.45,15.86-30.08T662.25,548.14Z" transform="translate(-4.6 -7.24)"/><path class="cls-1" d="M714.29,537.8h-11.8q-10.79,27-15.61,38.71-11.55,28.17-17.26,34.64a16.33,16.33,0,0,1-9.77,5.46l.38,6.6q6.21-.39,15.23-.38,10.78,0,16.37.38l.76-6.35-9.77-2.28q2.53-7.49,5.58-15.49h33.5q3.69,9.64,3.68,12.32a3.72,3.72,0,0,1-2.15,3.61q-2.16,1.08-7.74,1.59l.25,6.6q8.76-.39,19.92-.38,12.82,0,19.93.38l.76-6.47-8.25-2.16Q733.33,584.88,714.29,537.8Zm-22.21,51.4,12.57-31q8,17.78,13.45,31Z" transform="translate(-4.6 -7.24)"/><path class="cls-1" d="M830.67,582.72q-7,.39-14.47.39t-14-.39l-.89,6.73L812,592.24a65.33,65.33,0,0,1,.39,7.36,80.4,80.4,0,0,1-.89,11.81,44.45,44.45,0,0,1-11.43,1.52q-12.44,0-19.67-9t-7.23-25.26q0-11.8,3.75-19.86t10.46-11.61a64.66,64.66,0,0,1,8.13-.63q10.79,0,16.88,4.69t6.09,13.07l7.1.89a66,66,0,0,0,1.91-16.75,39.48,39.48,0,0,0-.51-7.11q-10.28-4.82-27.16-4.82A50,50,0,0,0,781.18,540q-26.65,10.53-26.65,40.86,0,20.17,10.59,31.85t28,11.68a67.12,67.12,0,0,0,15.1-1.78A170.7,170.7,0,0,0,829,615.85q-.63-8.9-.63-13.33,0-10.78,3.55-16Z" transform="translate(-4.6 -7.24)"/><path class="cls-1" d="M898.82,606.08a26.48,26.48,0,0,1-5.83,7.35H867.35q-1.14-7.09-1.14-30.58l24.75,1.9,1.64-11.16-26.39.63q.25-17.13,1.52-25.13c0-.16,0-.46.06-.88a8.58,8.58,0,0,0,.07-.89H888.8a25.45,25.45,0,0,1,10,14.85l6.48-.76-2.92-23.86q-14.6.5-32.62.5-15.22,0-29.31-.38l-.76,6.48,9,2.53q1.65,9,1.65,30.71,0,22.22-1.27,29.7a13.79,13.79,0,0,1-2.54,6.54q-1.78,2.08-6.6,3.11l.25,6.47q10.54-.39,30.08-.38,18.27,0,35.41.5l3.17-26.27-6.47-.76A30.45,30.45,0,0,1,898.82,606.08Z" transform="translate(-4.6 -7.24)"/><path class="cls-1" d="M982.9,610.26a64.78,64.78,0,0,1-8.5-10.15q-4.75-6.72-11.74-18c.17-.09.74-.34,1.71-.76a15.36,15.36,0,0,0,2.23-1.14q14.34-7,14.34-19.8,0-11.17-8.06-17t-22.27-5.83q-2.67,0-8.19.19c-3.68.12-7.09.19-10.22.19q-12.69,0-17.13-.26l-.76,6.48,9,2.53q1.65,9,1.65,30.71,0,22.73-1.27,30.21c-.51,2.87-1.37,4.95-2.6,6.21s-3.4,2.25-6.54,2.93l.26,6.47q6.21-.39,18.78-.38t18.53.38l.76-6.6-10.66-2.16q-1.4-7.49-1.4-27.67,4.57-.24,6.73-.5a317.85,317.85,0,0,0,23.1,36.93q6.09-.39,12.18-.38t12.56.38v-6.73a27,27,0,0,1-6.28-1.71A25,25,0,0,1,982.9,610.26Zm-29.25-34a36.29,36.29,0,0,1-6.85.51c-1.27,0-3.26-.09-6-.25q0-18.28,1.53-27.42a10.89,10.89,0,0,1,.25-2h4.19q7.74,0,12.18,3.87t4.44,10.6Q963.42,572.19,953.65,576.25Z" transform="translate(-4.6 -7.24)"/></svg>