<svg id="Layer_1" data-name="Layer 1" xmlns="http://www.w3.org/2000/svg" viewBox="0 0 801.9 554.6"><defs><style>.cls-1{fill:#6e8f27;}.cls-2{fill:none;}</style></defs><title>2</title><path class="cls-1" d="M280.88,487.75a10.24,10.24,0,0,1,6-5.75c-59.51-7.19-114-20.14-159.13-38.19C57.24,415.65,18.42,378.9,18.42,340.33c0-36.8,35.37-71.94,99.83-99.55H89.79c-54.14,28-83.48,62.66-83.48,99.55,0,43.86,41.53,84.62,117,114.74,44.58,17.81,98,30.78,156.3,38.22A18.27,18.27,0,0,1,280.88,487.75Z" transform="translate(-6.31 -9.93)"/><path class="cls-1" d="M791.11,340.33a69.1,69.1,0,0,1-.52,8.52H778.36a57.77,57.77,0,0,0,.64-8.52c0-36.8-35.39-71.94-99.85-99.55h28.46C761.74,268.79,791.11,303.44,791.11,340.33Z" transform="translate(-6.31 -9.93)"/><path class="cls-1" d="M473.92,258.5a1.32,1.32,0,0,1-1.17,1.17c-8.06,1.63-16.46,3.41-24.28,5.81-3.94,1.21-12,2.89-12,8.29,0,6.21,22.32,10.24,22.17,13.46-.09,1.58-18.49,5.62-25.16,9.58a2.07,2.07,0,0,0-1.22,1.48c-.3,3.63,13.49,7.29,13.33,10.2-.22,4.69-35.87,4.18-35.93,6.15,0,2.31,47.52,7.86,47.52,10,0,1.78-34.85,1.39-39.55,12.07a2.88,2.88,0,0,0-.3,1.55c.9,7.51,36.22,5.24,36.28,7.22,0,2.62-61.27,6.63-61.36,12.87-.08,5.82,39.29,10.07,39.22,15.51-.13,6.54-64.71,7.87-64.82,14.74,0,4.6,32,8.88,31.86,11.9s-33.75,1.34-33.86,3.59,30.67,5.22,30.67,10.2c0,3.44-14.83,5-14.79,8.17.07,4.74,33.32,6.55,33.32,9.34,0,1.68-11.31,2.76-18.53,3.42-20.45,1.89-31.25,1-31.4,2.78-.26,3.3,38.23,10.37,37.92,15.88-.05,1-1.46,1.61-2.23,2-14.47,6.15-35.82,7.69-36,9.45-.15,2.41,3.82,5.53,5.23,7s6.76,6.23,5,8.81a3.68,3.68,0,0,1-2,1.41,32.41,32.41,0,0,1-8.68,1.57c-5.71.53-16.55-1.24-24.17,2.64a14.69,14.69,0,0,0-3.53,2.45c-1.39,1.32-3,2.79-2.71,4.36.33,1.94,3.48,3.7,7.54,5.4h0c6,2.51,13.92,4.78,17.54,7.11,2,1.28,2.05,2.21,2,2.47-.13,1-1.3,1.61-1.69,1.83-4.1,2.07-61.52-4.25-66.63-15.62a3.61,3.61,0,0,1-.37-1.83,4.13,4.13,0,0,1,.31-1.39c1.27-3.44,4.69-5.79,11.5-7.71,0,0,0,0,0,0q2.61-.76,5.93-1.43c15-3,22.62-1.76,24.61-6.48a5.82,5.82,0,0,0,.17-4.23c-4.69-11.08-61.34-6.17-64.09-8.09a1.67,1.67,0,0,1-.86-1.23c0-.66.35-1.28.86-1.3,3.06-.44,6.1-.86,9.14-1.34a190.59,190.59,0,0,0,19.63-4c.8-.24,7.28-1.3,7.21-3.44,0-.35-.27-1.63-12.07-3.87-8.16-1.55-16.26-3.37-24.39-5.33-1-.23-14.39-2.78-14.39-4.08,0-.88,25.14-2.84,46-9.67,2.8-.91,7.53-2.58,7.51-4.48,0-2.31-7.14-3.85-13.33-4.93-29.1-5.09-56.05-4.21-56.16-5.95-.15-2.11,41-7.8,40.83-11.72-.13-4.78-64.51-5.62-64.51-8.88,0-2.2,29.56-2.69,30.12-10.82a4.73,4.73,0,0,0-.2-1.41c-2.36-8.39-40.7-6.3-41-9.54-.25-2.79,28.68-6.54,28.66-11.83,0-5-32.25-7.2-32.25-9.49.06-2.82,49-1.26,49.19-5.23.2-4.42-60.12-12.95-59.86-18.83.18-3.48,21.46-3.68,21.55-7.74.11-3.41-14.78-5.79-14.67-8.15.19-4.34,50.58-2.4,50.69-5,.11-3-65.3-9.6-65.17-14.87.07-3.48,28.6-4.21,28.66-8.31,0-3.63-22.4-6.58-22.25-9.07.07-1.15,4.63-1.1,12.89-2.43,8-1.27,20-3.9,19.87-5.48-.13-2.93-40.62-.77-41.42-6.79-.28-2.14,4.54-4.4,9.46-6.81.41-.22.85-.44,1.27-.64.64-.24,1.26-.46,1.83-.7,5.51-2.14,6.61-3.68,6.55-4.72-.16-2.29-6.15-3.28-24.68-9.6-4.58-1.59-10.11-3.46-11.44-5.11a1.3,1.3,0,0,1-.19-.31.68.68,0,0,1-.11-.35h21.79l7.18.35h32.21l-.82.26c-4.36,1.48-7.4,2.74-7.4,3.48,0,2.3,28.2,5.29,28.31,9,.05,2.49-10.66,4.47-10.37,6.06.15,1,4.64.83,4.64.9,9,2,27.7,2.67,27.74,5.11.09,2.78-24,5-24,8.73,0,4.31,29.28,7,29.28,10.31-.06,3.81-37.1,3.87-37.28,8.35-.22,5.57,56.41,11.21,56.43,20.77,0,7.27-32.65,13-32.37,15.76s32.57-1.9,33,1.85c.25,2.09-9.82,5-9.6,8.08.28,4.28,19.72,3.68,20.07,6.77.46,4-31.84,9.23-31.73,14.23.16,5.46,39.13,7.51,39.13,12.32,0,5.53-28,10.22-27.82,16,.24,6.59,36.72,8.24,36.72,13.29,0,3.85-20.64,5.95-20.66,10.38,0,5.28,29.59,7.09,30.18,16.43.42,6.08-11.76,10.25-11.06,15.93.57,4.94,10.51,6.61,16.48,6.5,7.12-.11,16-2.89,16.13-6.57C349,429.78,334.63,426.4,335,423c.18-1.35,2.45-1.79,9.26-3.31C357,416.84,358.89,416.23,359,415c.42-3.74-17.47-9-17.1-13.9.27-3.26,8.7-3.52,8.79-6.37.18-3.63-13.9-5.77-14-9.51-.11-6.22,38.74-9.56,39-18.33.25-6.9-23.44-12.36-22.93-17.85.28-3,7.53-2.95,20.47-7.47,8.63-3,22.31-7.78,22.36-13.2,0-7.8-28.33-12.25-28-18,.15-2.11,4-3,11.94-5.33,18.79-5.59,29.24-8.72,29.43-12.62.27-5.78-21.94-11.46-21.52-14.48.2-1.54,6.12-.81,17.73-2.16,7.32-.86,12.28-1.45,12.41-3.13.24-3.45-23-7.84-22.67-11.72a1.32,1.32,0,0,1,.13-.44c1.28-2.46,7.31-2.77,9.61-3.1,5.2-.78,10.44-1.15,15.68-1.48a289.22,289.22,0,0,1,34.46-.33c4.43.24,8.86.37,13.24,1,1.28.18,4.45.13,5.42,1.12A1.15,1.15,0,0,1,473.92,258.5Z" transform="translate(-6.31 -9.93)"/><path class="cls-1" d="M637.23,269.6c0-2.63-26.87-6-26.87-8.06,0-1.06,5-1.2,5.66-1.26,4-.37,8.08-.45,12.11-.92,1.6-.18,3.19-.39,4.78-.66.38-.07,3.21-.79,1.78-1.46-3.34-1.56-7.91-1.82-11.51-2.27a98.51,98.51,0,0,0-12.38-.72,151.18,151.18,0,0,0-24.48,2.23,77.12,77.12,0,0,0-8.11,1.64c-1.93.54-4.09,1.42-4.05,3.88.06,4.23,16.87,6.76,16.89,10.72,0,5.11-28.87,8.82-29,14.93-.1,5.29,21.28,8.69,21.12,13.38-.2,5.71-32.23,6.52-32.45,12.71-.16,4.6,17.51,7.69,17.47,13.36-.08,7.33-29.72,9.69-30.13,19-.22,5.73,10.75,9.13,10.29,12.76-.85,6.37-36.54,4.08-36.87-1.63-.2-3.64,14-6.85,13.73-10.48-.4-4.75-24.7-3.21-25-7.23-.26-3.65,19.66-7.8,19.45-12-.22-4.89-27.24-5-27.35-9.21-.14-4,22.37-8,22.19-10.67-.18-2.39-17.63-1.06-17.87-4-.19-2.33,10.73-5.35,10.54-7.12-.23-2.32-22,2-23.05-1.36-1.22-3.77,26.77-13,25.52-20.45-.12-.69-.74-2.89-9.91-5.61-20.6-6.11-40.5-1.82-40.45,0,0,1,5.94.26,14,4.54,3.55,1.89,9.22,4.9,9.09,8.32-.21,5.86-17.42,7.4-17.38,12.36,0,5.62,19.94,8.42,19.81,13.38-.1,4.25-14.75,5.56-14.81,9.6-.09,4.78,20.44,7.55,20.42,12.32s-20,6.4-20,11.54c0,.94.65,2.69,11.68,7.86,12.21,5.69,17.35,6.59,17.35,8.34,0,4.1-21.72,8.25-21.66,10.85,0,3.38,41.32,1,41.52,6,.08,1.85-6.22,3.83-11.66,5.58-15.06,4.77-25.53,4.11-25.59,5.48-.1,2.4,32.9,5.9,32.84,9.52,0,2.9-21.58,4-21.58,5.74,0,2.7,49.13,2.39,49.25,6.35.08,2.61-13.24,4.88-13.16,7.23.1,3.48,38.12,4.52,38.56-1.08.23-2.88-11.43-6.36-11-9.48.2-1.69,3.85-1.75,12.55-3.88,7.41-1.81,11.52-2.81,11.58-4.33.12-3.46-22-6.59-21.86-9.69.06-1.75,7.39-2.88,18-4,10.83-1.13,9.67-3.44,9.71-4.32.08-2.15-25-3.31-25-6.6,0-2.53,18.57-3.34,18.57-5.42s-19.32-2.55-19.4-5.44c-.08-2.73,25.37-4.75,25.29-7.17-.1-2.69-17.92-2.67-19.6-2.84-3.38-.22-7.77.28-11-1.37-5.29-2.69,6.64-6.34,8.46-6.94,8.7-2.88,17.79-3.31,26.68-3.9,4.6-.31,9.19-.66,13.79-1.25,2.35-.31,2.45-1.69,2.45-2.06,0-4-26.48-6.52-26.38-9.88,0-.6.89-1,1.3-1.19,9.47-4.1,23.28-3.18,36.6-5.14,1-.15,3.52-.57,3.54-1.36.1-2.56-19.88-3.81-19.86-7.79,0-.75.93-1.42,7.59-4.09,10.85-4.31,14.72-5.1,14.68-6.12,0-1.44-7.7-1.71-22.15-4.09-7.29-1.16-13.22-2.14-13.22-2.83s6.86-1.42,38.53-1c.42-.15,1-.4,1-.83.26-2.88-24.29-7.78-24.15-11.7C604.9,273.89,637.19,272.43,637.23,269.6Z" transform="translate(-6.31 -9.93)"/><line class="cls-2" x1="183.13" y1="248.15" x2="183.07" y2="248.15"/><path class="cls-1" d="M686.68,168.65c-1.34,0-2.69-.07-4-.11l-10-.24c-1.36-.05-2.73-.07-4.1-.11a41.9,41.9,0,0,0,8.71-15.34c0-.15.09-.28.13-.44a2.52,2.52,0,0,0,.15.44A47.94,47.94,0,0,0,686.68,168.65Z" transform="translate(-6.31 -9.93)"/><path class="cls-1" d="M608.67,180.72c.13.14.24.29.35.42-.29,0-.55,0-.84.05Z" transform="translate(-6.31 -9.93)"/><path class="cls-1" d="M639.36,145.54h-.05c-2.31.07-4.65.11-7,.18l7-.2h0S639.33,145.54,639.36,145.54Z" transform="translate(-6.31 -9.93)"/><path class="cls-1" d="M660.35,201.59c-.77-.05-1.52-.07-2.29-.09.35-.24.73-.51,1.08-.77C659.56,201,660,201.3,660.35,201.59Z" transform="translate(-6.31 -9.93)"/><path class="cls-1" d="M682.65,168.54l-10-.24c.47-.88.88-1.81,1.32-2.78a57.66,57.66,0,0,0,3.44-10.44,62.34,62.34,0,0,0,4.28,11.48C682,167.24,682.3,167.9,682.65,168.54Z" transform="translate(-6.31 -9.93)"/><path class="cls-1" d="M645.06,145.38c-1.87.05-3.81.09-5.7.16h-.05c-2.31.07-4.65.11-7,.18l-7,.17h0l-5.62.16a65.71,65.71,0,0,0,12.87-21.62c.06-.2.13-.39.19-.59a4.17,4.17,0,0,1,.18.57A57,57,0,0,0,645.06,145.38Z" transform="translate(-6.31 -9.93)"/><path class="cls-1" d="M639.31,145.52v0c-2.31.07-4.65.11-7,.18l-7,.17c.48-.88,1-1.81,1.43-2.73a84.86,84.86,0,0,0,5.95-15.69,80.34,80.34,0,0,0,4.8,14.28C638.08,143.05,638.7,144.31,639.31,145.52Z" transform="translate(-6.31 -9.93)"/><path class="cls-1" d="M660.35,201.59c-.77-.05-1.52-.07-2.29-.09.35-.24.73-.51,1.08-.77C659.56,201,660,201.3,660.35,201.59Z" transform="translate(-6.31 -9.93)"/><path class="cls-1" d="M128.92,168.19c-1.39,0-2.74.06-4.12.11l-10,.24c-1.37,0-2.71.09-4,.11a47.67,47.67,0,0,0,9.21-15.8,3.84,3.84,0,0,1,.15-.44l.11.44A42.27,42.27,0,0,0,128.92,168.19Z" transform="translate(-6.31 -9.93)"/><path class="cls-1" d="M694.72,224.28a31.82,31.82,0,0,1-4.29-5c3.81.38,7.6.75,11.39,1.15-2.38-2.1-4.83-4.41-7.3-7-1.67-1.71-3.19-3.41-4.64-5.06q3.79,0,7.58.11a40.75,40.75,0,0,1-7.39-8,38.06,38.06,0,0,1-3.52-6.43c2.8.13,5.6.22,8.37.35a62.14,62.14,0,0,1-11.46-15.18c2-.06,4.1-.13,6.13-.22a61.35,61.35,0,0,1-6.94-10.44l-10-.24a52.27,52.27,0,0,1-7.53,11.21l6.19-.31c-1.12,1.79-2.45,3.68-3.94,5.64a65.41,65.41,0,0,1-7.28,7.87l9.28-1.45a67.8,67.8,0,0,1-5.29,5.46,58,58,0,0,1-4.89,4c.42.29.82.57,1.21.86-.77-.05-1.52-.07-2.29-.09.35-.24.73-.51,1.08-.77a57.68,57.68,0,0,1-5.11-4.19,56.13,56.13,0,0,1-5.09-5.28c3.55-.11,7.12-.22,10.69-.36a81.18,81.18,0,0,1-8.31-6.52,79.13,79.13,0,0,1-7.38-7.47c4.32.69,8.64,1.32,12.95,2a87.8,87.8,0,0,1-10.15-10.78,83.86,83.86,0,0,1-5.51-7.71c2.86.18,5.75.31,8.64.46a71.81,71.81,0,0,1-10.51-15.33h-.05c-2.31.07-4.65.11-7,.18l-7,.17h0a86.52,86.52,0,0,1-9.67,14.28c2.84.09,5.7.15,8.54.24a82.22,82.22,0,0,1-6.23,9.8,83.69,83.69,0,0,1-9.25,10.51c.13.14.24.29.35.42,3.59-.13,7.22-.28,10.84-.44-1.57,2.32-3.35,4.78-5.33,7.29l-.8-1c-1.56-2-3.15-3.93-4.71-5.89-.29,0-.55,0-.84.05l.49-.47Q563,123.75,517.28,66.8a6.59,6.59,0,0,0-9.57-.18,0,0,0,0,0,0,0,.06.06,0,0,1,0,0c-11.94,8.68-23.4,28.25-23.4,28.25-2.69,4.56-12.54,17-34.9,42.94l1.76,2.53,30.12,43.41q-16.49-18.25-33-36.49c-1.17-1.43-2.31-2.8-3.52-4.12a95,95,0,0,0-14-12.91c-2.69-2-4.71-3.26-6.3-4.27a40.43,40.43,0,0,1-6-4.41,62.75,62.75,0,0,1-11.57-14.37A39.7,39.7,0,0,1,402.62,99a36.45,36.45,0,0,0-5.09-9.47c-.62-.88-3.59-4.65-15.91-16.92-.19-.4-.41-.79-.63-1.21A128.19,128.19,0,0,0,354.44,38l-9.35-8.39Q339,21.18,332.76,12.77a7.58,7.58,0,0,0-11.66-.22l0,0s0,0,0,0C306.47,24.19,292.5,50.27,292.5,50.27c-5.17,9.67-32.43,45.83-107.56,138.3-.26.33-.53.64-.79,1-2.53-3.07-4.69-6-6.59-8.84,3.9.18,7.78.33,11.66.49a83,83,0,0,1-16-20.78c2.87-.09,5.71-.15,8.55-.24a87.12,87.12,0,0,1-9.69-14.28l-7-.17c-2.33-.07-4.67-.11-7-.18H158a71.1,71.1,0,0,1-10.49,15.33c2.87-.15,5.75-.28,8.64-.46a90.45,90.45,0,0,1-5.53,7.71,89.33,89.33,0,0,1-10.13,10.78c4.31-.67,8.61-1.3,12.93-2a80.32,80.32,0,0,1-15.69,14c3.59.14,7.14.25,10.71.36a56.5,56.5,0,0,1-5.11,5.28,51.9,51.9,0,0,1-5.11,4.19c.37.26.72.53,1.08.77l-2.25.07,1.17-.84a56.42,56.42,0,0,1-4.89-4,64.09,64.09,0,0,1-5.27-5.46l9.28,1.45a63.06,63.06,0,0,1-7.28-7.87,68.37,68.37,0,0,1-3.94-5.64l6.17.31a53.79,53.79,0,0,1-7.53-11.21l-10,.24a62.52,62.52,0,0,1-7,10.44c2,.09,4.07.16,6.12.22a57,57,0,0,1-4.47,7.16,60.21,60.21,0,0,1-7,8c2.79-.13,5.57-.22,8.37-.35a38.18,38.18,0,0,1-3.53,6.43,39.85,39.85,0,0,1-7.38,8c2.51,0,5.07-.09,7.6-.11-1.43,1.65-3,3.35-4.62,5.06-2.51,2.58-5,4.89-7.34,7,3.81-.4,7.6-.77,11.39-1.15a31.82,31.82,0,0,1-4.29,5,32.35,32.35,0,0,1-10.25,6.61l70.52,0,34.6,0s.08,0,.13,0h5q10.17,0,20.35,0l382.61-.26,99.35.35A32.79,32.79,0,0,1,694.72,224.28ZM419.28,193.86l-20.52-1.26c-6.85-.42-13.68-.86-20.53-1.26A28.93,28.93,0,0,0,374,186l-.61-.62c-.22-.22-.44-.41-.66-.61s-.47-.4-.71-.62c-.48-.4-1-.81-1.54-1.21a8.25,8.25,0,0,0-.84-.57c-.28-.2-.57-.38-.86-.55s-.61-.4-.94-.58c-.6-.33-1.19-.64-1.77-.92s-.9-.42-1.34-.6a26.45,26.45,0,0,0-2.89-1c-.46-.13-.9-.27-1.34-.35-.22-.07-.44-.11-.64-.16a1.27,1.27,0,0,0-.26,0,2.1,2.1,0,0,0-.36-.09l-1.12-.2-1-.13c.48.57,1,1.19,1.52,1.87l.53.71c.7,1,1.43,2,2.15,3.17s1.46,2.42,2.16,3.79,1.37,2.84,2,4.41a54.34,54.34,0,0,1,2.27,7.33c.17.73.33,1.46.44,2.16s.24,1.37.33,2v0c-.38,0-.77,0-1.19,0s-.84,0-1.28,0c-.82,0-1.65,0-2.51-.06a4.72,4.72,0,0,1-.64,0l-.62,0-1.74-.15a10.62,10.62,0,0,1-1.34-.16c-.44,0-.88-.09-1.32-.17,0,0-.09,0-.14,0a13.34,13.34,0,0,1-1.34-.22c-.46-.06-.95-.17-1.43-.26s-1.17-.24-1.77-.37c-.77-.2-1.52-.38-2.22-.6s-1.43-.44-2.09-.66-1.33-.44-1.94-.68-1.24-.49-1.81-.73h0a.82.82,0,0,0,0-.16c0-.08,0-.22-.05-.41s-.06-.62-.11-1a2.1,2.1,0,0,1,0-.37c0-.14-.05-.29-.07-.44a5.17,5.17,0,0,0-.09-.64c0-.07,0-.14,0-.22,0-.4-.11-.82-.18-1.26a.08.08,0,0,1,0-.07,7,7,0,0,0-.11-.74c-.06-.47-.15-.93-.24-1.41-.22-1.26-.49-2.63-.79-4.08-.09-.44-.18-.9-.29-1.37-.18-.79-.37-1.63-.57-2.49a1.28,1.28,0,0,1-.09-.35s0-.11-.05-.15c-.22-.91-.46-1.83-.72-2.78-.16-.57-.33-1.12-.51-1.7s-.33-1.14-.53-1.71c-.35-1.15-.75-2.32-1.17-3.46a68.67,68.67,0,0,0-3.94-9.28c-.22-.4-.44-.79-.68-1.19s-.46-.81-.73-1.21c-.51-.79-1.06-1.63-1.67-2.45-.25-.33-.49-.66-.75-1s-.55-.7-.82-1l-.48-.57-.31-.33c-.24-.29-.49-.55-.73-.8a1.36,1.36,0,0,0-.17-.17c-.14-.16-.27-.29-.4-.42l-.42-.42a.15.15,0,0,0-.09-.11s-.06-.07-.09-.09L328,155c-.17-.17-.33-.37-.5-.55a21.13,21.13,0,0,1-1.59-2.05c-2.58-3.76-4.63-9.14-4.6-17h0l2.11.75c.73.27,1.44.55,2.21.86h0c1.52.57,3.1,1.26,4.74,2s3.3,1.55,5,2.45,3.5,1.85,5.29,2.93q2,1.22,4.1,2.58c.5.33,1,.66,1.52,1,.88.62,1.78,1.23,2.66,1.9.64.46,1.3.94,1.94,1.45l.86.66c.73.57,1.43,1.15,2.12,1.74,1.38,1.15,2.68,2.31,3.94,3.46s2.42,2.31,3.52,3.44c.56.57,1.11,1.12,1.61,1.69q1.59,1.69,3,3.31c.11.13.22.28.33.44.24.31.53.64.86,1a5.7,5.7,0,0,0,.53.6c.19.2.39.42.59.61a20.29,20.29,0,0,0,1.48,1.41c.19.2.42.38.64.58l.83.68c.29.24.6.46.91.7s.79.58,1.21.86c.24.16.5.33.77.49a31,31,0,0,0,4.78,2.49c.64.24,1.3.51,2,.75l.86.26c.42.13.84.24,1.24.35a29.89,29.89,0,0,0,3,.64,2.24,2.24,0,0,0,.37,0l.25,0h.09l.11,0h0a.85.85,0,0,1,.22,0l.15.07.09,0,.09,0a12.63,12.63,0,0,1,.37.13,11.67,11.67,0,0,1,1.26.49l.33.13a.51.51,0,0,0,.18.09s.11,0,.17.07l0,0,.48.22s0,0,0,0l.18.07c.2.11.42.19.66.3s.4.18.6.29.35.18.53.24a.65.65,0,0,0,.22.11l1.32.64,1.56.75a1.05,1.05,0,0,1,.11.07c.6.28,1.21.59,1.87.92l1.24.62c.84.44,1.74.88,2.69,1.39.48.24,1,.48,1.47.75,2.54,1.3,5.4,2.77,8.62,4.49,1.3.68,2.64,1.39,4.07,2.16.71.37,1.44.75,2.16,1.15s1.19.61,1.81.94h-.07S419.25,193.86,419.28,193.86Zm23.33-40.72a54.55,54.55,0,0,1-5.88,1.15s-.05,0-.05,0l-1.76.15a0,0,0,0,1,0,0s-.11,0-.18,0l-.73.06-.48,0h-.13a4.89,4.89,0,0,1-.66,0c-.44,0-.82,0-1.21,0s-.78,0-1.15,0a1.51,1.51,0,0,1-.31,0,3.14,3.14,0,0,1-.53,0l-.84-.06a13,13,0,0,1-1.3-.13c-.06,0-.11,0-.15,0a.85.85,0,0,1-.22,0c-.29,0-.57-.07-.84-.11l-.09,0a8.2,8.2,0,0,1-1-.2c-.4-.07-.77-.15-1.12-.24l-.8-.22a5.08,5.08,0,0,1-.59-.18,4.17,4.17,0,0,1-.57-.18c-.27-.08-.53-.17-.77-.26-.47-.15-.93-.33-1.41-.51a1.57,1.57,0,0,1-.29-.08,9.43,9.43,0,0,0-.9-.29,14.53,14.53,0,0,0-4.28-.71,10,10,0,0,0-2.14.25c-.33.06-.66.11-1,.19a6,6,0,0,0-.72.25c-.2.06-.4.15-.58.22s-.37.17-.53.26a1.05,1.05,0,0,1-.11.07,1.72,1.72,0,0,0-.37.22,2.25,2.25,0,0,0-.35.22l-.69.48c-.22.18-.46.33-.7.51s-.79.51-1.28.77a16.19,16.19,0,0,1-1.81.79,4.41,4.41,0,0,1-.55.18,1.14,1.14,0,0,1-.26.09,19.16,19.16,0,0,1-5.46.86,5.08,5.08,0,0,1-.67,0c-.22,0-.44,0-.68,0l-.68-.06a11.45,11.45,0,0,1-1.39-.29l-.7-.2-.36-.13a1.13,1.13,0,0,1-.33-.13s0,0,0,0a5.73,5.73,0,0,1-.64-.26,2.14,2.14,0,0,1-.22-.13h0s0,0-.05,0l-.13-.07a0,0,0,0,0,0,0s0,0,0,0a4.31,4.31,0,0,1-.64-.37s-.09-.07-.13-.09a2,2,0,0,1-.36-.26s0,0,0,0l-.29-.22c-.09-.09-.2-.18-.28-.27l0,0,0,0a2.57,2.57,0,0,1-.28-.29l-.31-.33-.38-.4-.22-.26c-.2-.24-.39-.49-.59-.75-.42-.53-.86-1.1-1.35-1.74l-.88-1.06c-.48-.57-.92-1.1-1.39-1.58l-.68-.73c-.2-.22-.42-.46-.64-.66l-.61-.64-1.19-1.12-.07-.07a3.77,3.77,0,0,0-.51-.42c-.37-.33-.72-.62-1.08-.9-.17-.16-.35-.29-.5-.42-.33-.27-.66-.51-1-.73s-.31-.24-.47-.35c-.57-.42-1.1-.79-1.58-1.19l-.42-.33a2.12,2.12,0,0,1-.4-.31l-.75-.66a11.41,11.41,0,0,1-1.19-1.3,1.55,1.55,0,0,1-.26-.37,5.42,5.42,0,0,1-.37-.56,4.07,4.07,0,0,1-.4-.7c-.07-.11-.11-.22-.18-.33a10.78,10.78,0,0,1-.44-1,11.37,11.37,0,0,1-.81-5.22c0-.28,0-.57,0-.88s0-.55,0-.86,0-.61,0-.94,0-.49,0-.78a.53.53,0,0,0,0-.22,4.81,4.81,0,0,0-.06-.74c-.05-.4-.11-.82-.16-1.26a3.11,3.11,0,0,0-.06-.44v0c-.11-.62-.22-1.28-.38-2s-.28-1.32-.44-2-.33-1.28-.5-1.87a47.76,47.76,0,0,0-2.32-6.17c-.35-.77-.7-1.5-1-2.14-.11-.22-.22-.42-.33-.61l-2.45,25.22c-1-.24-2-.46-2.93-.7s-1.83-.47-2.66-.71l-1.46-.44-1.34-.42c-.58-.17-1.13-.37-1.63-.55l-.4-.15-.73-.27a2.13,2.13,0,0,0-.33-.11c-.22-.09-.44-.15-.66-.24-.62-.24-1.14-.44-1.61-.64,0,0-.06,0-.08,0s-.07,0-.09-.05l-.49-.19c-.68-.27-1.25-.51-1.87-.78l-1.06-.44c-.68-.28-1.47-.59-2.51-1l-2.09-.77-.91-.33-1.6-.57c-.75-.27-1.44-.53-2.14-.82-1.12-.46-2.27-1-3.72-1.74l-1.64-.9c-.41-.24-.79-.46-1.16-.71s-.64-.37-.93-.55-.79-.53-1.19-.79c-.9-.62-1.67-1.21-2.36-1.74-.24-.22-.5-.44-.74-.64s-.49-.4-.73-.57l-.66-.53q-.33-.27-.66-.51c-.36-.26-.75-.5-1.15-.75l-.46-.26a4.13,4.13,0,0,0-.53-.24c-.22-.09-.46-.2-.71-.29a14.42,14.42,0,0,0-2.13-.62c-.38-.09-.73-.15-1.08-.2l-.91-.11a4.37,4.37,0,0,0-.72-.06,2.42,2.42,0,0,0-.38,0h-.15a3.14,3.14,0,0,0-.53,0c-.4,0-.79,0-1.21,0s-.64,0-1,.09a35.83,35.83,0,0,0-3.66.64l-1.5.35-4.32,1.12c-.26.09-.55.13-.81.22A67.49,67.49,0,0,0,279.24,126c-.35.27-.68.51-1,.75a4.57,4.57,0,0,0-.49.38,1,1,0,0,0-.24.17,1.74,1.74,0,0,0-.22.18l-.82.62c-.26.22-.52.42-.77.61s-.53.44-.79.64a4.47,4.47,0,0,1-.35.29c-.31.24-.6.48-.91.75-.68.55-1.36,1.08-2.07,1.56a21.5,21.5,0,0,1-2.09,1.37c-.11.07-.24.13-.37.2a.54.54,0,0,1-.18.11.66.66,0,0,0-.2.11l-.29.13a3.8,3.8,0,0,1-.5.24c-.29.13-.57.24-.86.38l-.9.35c-.31.13-.64.22-1,.33-.66.22-1.33.4-2,.55l-.18,0c-.4.09-.82.18-1.21.25l-.22,0c-.53.09-1.06.18-1.55.22s-.7.09-1,.11-.46.05-.68.05-.6,0-.88,0-.62,0-.91,0c-.57,0-1.08,0-1.56,0,.42-.69.81-1.37,1.25-2,.11-.2.25-.37.36-.55.28-.48.59-1,.9-1.41s.59-.86.9-1.28v0c.31-.42.6-.84.88-1.23.09-.11.16-.2.22-.29.49-.68,1-1.34,1.48-2s1-1.24,1.52-1.83c.33-.4.66-.77,1-1.15.66-.75,1.32-1.47,2-2.14.29-.3.58-.59.89-.88.57-.57,1.14-1.12,1.71-1.63s1.13-1,1.68-1.49h0c.55-.49,1.1-.91,1.65-1.33a49.5,49.5,0,0,1,5.73-3.87c2.67-1.57,5.27-2.74,7.73-3.93,1.77-.86,3.49-1.71,5.16-2.73.42-.24.82-.5,1.21-.77a6.61,6.61,0,0,0,.55-.37c.44-.31.88-.62,1.32-1l.2-.16c.38-.28.73-.59,1.1-.92s.86-.8,1.28-1.21a12.55,12.55,0,0,0,1.06-1.13l.51-.57c.24-.29.5-.6.75-.93l.26-.33c.07-.08.11-.15.18-.22.35-.46.66-.9.92-1.32,2.16-3.28,2.54-5.71,5.64-11.28A77,77,0,0,1,320.62,67c.44.64.88,1.26,1.28,1.85.17.25.33.47.48.71.66.93,1.26,1.78,1.83,2.62v0h0c.18.27.35.53.53.78s.33.48.48.72c.36.49.66,1,1,1.41v0c.31.44.62.89.88,1.28v0c.16.22.29.42.42.62l1.15,1.72c.13.2.24.37.37.55s.2.31.31.46.22.33.33.51.2.29.29.44c.2.31.4.6.57.88a.42.42,0,0,1,.11.18s.05,0,.05.06,0,0,0,0a0,0,0,0,1,0,0c.09.17.2.33.29.48s.17.24.24.36a3,3,0,0,0,.22.35c.13.22.26.44.4.64.24.39.46.75.63,1s.38.64.53.89.2.33.27.46a4.53,4.53,0,0,1,.28.55h0v0c.24.55.44,1.08.63,1.63a108,108,0,0,1,3.55,10.73c.44,1.63.82,3.2,1.13,4.65s.59,2.82.81,4.08c.44-4,.9-8,1.34-12q1.13-9.94,2.23-19.9l-4.58-5.7c-3.15-4-6.33-7.87-9.5-11.81-.15-1.46-.31-2.87-.46-4.23,0-.09,0-.18,0-.27-.14-1.27-.27-2.51-.4-3.72-.15-1.52-.31-3-.46-4.38l-.2-1.86c0-.33-.07-.63-.11-.94-.07-.66-.13-1.33-.2-2-.11-1-.2-1.85-.31-2.74s-.2-1.89-.28-2.79-.18-1.72-.27-2.52-.17-1.56-.24-2.26-.15-1.37-.22-2q-.17-1.38-.27-2.46a9.56,9.56,0,0,0-.11-1c0-.31-.06-.59-.08-.83-.07-.51-.11-.91-.14-1.22l-.06-.57,0,0,.09.09.39.33a.67.67,0,0,1,.14.11l.11.11c.11.09.22.2.33.31s.53.46.83.75c.58.48,1.24,1.1,2,1.81.11.11.22.19.35.33l.4.33.27.24v0l.06.07,1.19,1.06c.44.37.88.79,1.37,1.21,3,2.69,6.8,6.12,11.43,10.29l2.4,2.16c.42.37.82.72,1.24,1.12s.83.73,1.27,1.12c1.44,1.3,2.87,2.65,4.26,4,2.09,2.08,4.12,4.23,6.1,6.5,1.32,1.52,2.6,3.07,3.86,4.67.63.8,1.25,1.61,1.87,2.43.79,1.06,1.56,2.14,2.33,3.24s1.52,2.22,2.25,3.35,1.46,2.31,2.16,3.48c.35.57.71,1.19,1,1.78s.7,1.21,1,1.81c.11.2.2.37.31.59s.2.4.31.58c.17.35.37.68.55,1C389,91.1,391.25,94.31,391.25,94.31v0a17.64,17.64,0,0,1,1.21,1.78,6.46,6.46,0,0,1,.49.77,20.77,20.77,0,0,1,1.43,2.69,5.86,5.86,0,0,1,.27.59c.08.2.17.4.24.58.17.39.31.77.46,1.14v0c.22.59.46,1.18.73,1.85.11.22.2.46.31.7s.22.46.33.73a57.44,57.44,0,0,0,3.61,6.48A74.23,74.23,0,0,0,411,125.51c.35.38.75.75,1.12,1.1s.77.75,1.19,1.1a42.74,42.74,0,0,0,6.39,4.81l.86.53.57.37c.4.24.82.51,1.24.79,1.08.71,2.29,1.55,3.74,2.63.51.37,1,.79,1.59,1.21.09.06.15.15.24.22h0c.51.39,1,.79,1.54,1.25h0c.28.25.57.51.88.75v0a.42.42,0,0,1,.13.11s0,0,0,0l.09.06v0l.13.11a3.18,3.18,0,0,1,.36.3c.17.16.33.29.5.44.71.62,1.44,1.28,2.16,2l.27.26c.66.62,1.3,1.26,2,1.94a0,0,0,0,0,0,0c.37.38.75.77,1.12,1.17a3.64,3.64,0,0,1,.38.4h0l0,0h0v0h0l0,.07,0,0c.09.09.2.2.29.31s.31.33.46.51a1.11,1.11,0,0,1,.2.24c.27.29.53.55.77.86s.33.37.49.55.24.29.37.42l.38.42,1,1.23,1,1.26Zm44.46-4.27a5.62,5.62,0,0,0-.18-.89c-.81-3.87-1.6-7.77-3.87-10.92a40.57,40.57,0,0,1-2.76-4s-.39-.64-.66-1.17a3.48,3.48,0,0,1-.24-.62,6.75,6.75,0,0,1-.18-.77,10.56,10.56,0,0,1-.06-2.42c0-.55.06-1.17.13-1.76a17.14,17.14,0,0,1,.26-1.85c.05-.31.09-.62.16-.93s.11-.62.15-.92.13-.62.18-.93.13-.57.17-.84c.18-.81.36-1.56.53-2.18.22-.86.38-1.5.47-1.78q17,18.47,34.08,37Zm109.61,36.48c-.82-.4-1.67-.79-2.56-1.23l-3.94-1.92c-.57-.29-1.17-.57-1.76-.86l-1.87-.9c-1-.47-2-1-3.11-1.52l-.49-.22L580,177.24c-.35-.15-.7-.33-1.08-.5-.68-.33-1.41-.69-2.13-1.06l-1.15-.55c-.77-.35-1.54-.75-2.33-1.15s-1.66-.79-2.52-1.21-1.69-.81-2.6-1.28l-2.77-1.34-2.91-1.41-3.06-1.5-4.92-2.38c-.57-.29-1.14-.55-1.71-.84-2.32-1.14-4.76-2.31-7.32-3.57l-2-.94-2-1c-1.35-.66-2.73-1.32-4.14-2-.71-.33-1.41-.68-2.14-1,7.36-.51,14.74-1,22.1-1.57L524,132.52l-12.78-31c-9,2.33-17.95,4.69-26.94,7h0l27.45-32.39Q526,97.7,540.28,119.3c1.25-1.41,2.53-2.8,3.79-4.21q11.56,13.16,23.22,27.14,19.86,23.86,37.34,47Z" transform="translate(-6.31 -9.93)"/><path class="cls-1" d="M165.09,145.72c-2.33-.07-4.67-.11-7-.18H158a0,0,0,0,0,0,0h0Z" transform="translate(-6.31 -9.93)"/><path class="cls-1" d="M203.27,231.09c-3.87-.2-7.77-.37-11.65-.55H202C202.41,230.74,202.86,230.91,203.27,231.09Z" transform="translate(-6.31 -9.93)"/><path class="cls-1" d="M124.8,168.3l-10,.24c.35-.64.68-1.3,1-2a66.22,66.22,0,0,0,4.28-11.48,56.13,56.13,0,0,0,3.44,10.44C123.91,166.49,124.33,167.42,124.8,168.3Z" transform="translate(-6.31 -9.93)"/><path class="cls-1" d="M139.34,201.5l-2.25.07,1.17-.84C138.63,201,139,201.26,139.34,201.5Z" transform="translate(-6.31 -9.93)"/><path class="cls-1" d="M177.74,146.05l-5.64-.16-7-.17c-2.33-.07-4.67-.11-7-.18H158c-1.89-.07-3.81-.11-5.7-.16a57.17,57.17,0,0,0,12.16-21c.06-.2.13-.37.2-.57.06.2.13.39.19.59A66,66,0,0,0,177.74,146.05Z" transform="translate(-6.31 -9.93)"/><path class="cls-1" d="M139.34,201.5l-2.25.07,1.17-.84C138.63,201,139,201.26,139.34,201.5Z" transform="translate(-6.31 -9.93)"/><path class="cls-1" d="M172.1,145.89l-7-.17c-2.33-.07-4.67-.11-7-.18v0c.61-1.21,1.23-2.47,1.82-3.77a78.09,78.09,0,0,0,4.81-14.28,87.83,87.83,0,0,0,5.95,15.69C171.15,144.08,171.61,145,172.1,145.89Z" transform="translate(-6.31 -9.93)"/><path class="cls-2" d="M370.83,123.4c-.11-.62-.22-1.28-.38-2s-.28-1.32-.44-2c.16.64.31,1.3.47,2S370.74,122.8,370.83,123.4Z" transform="translate(-6.31 -9.93)"/><path class="cls-2" d="M371,124.28c0,.28.07.57.09.84-.07-.53-.13-1.08-.22-1.7C370.89,123.73,370.92,124,371,124.28Z" transform="translate(-6.31 -9.93)"/><path class="cls-2" d="M352.23,130.62a2.13,2.13,0,0,0-.33-.11c-.22-.09-.44-.15-.66-.24-.62-.24-1.14-.44-1.61-.64,0,0-.06,0-.08,0a.12.12,0,0,0,.08,0l1.63.64Z" transform="translate(-6.31 -9.93)"/><path class="cls-2" d="M365.83,108.59v0l-2.45,25.22,2.42-25.27Z" transform="translate(-6.31 -9.93)"/><path class="cls-2" d="M430.71,140.49v0l-.09-.09Z" transform="translate(-6.31 -9.93)"/><path class="cls-2" d="M437.67,147.17v0s0,0,0,0Z" transform="translate(-6.31 -9.93)"/><path class="cls-2" d="M437.74,147.26l-.07-.07h0Z" transform="translate(-6.31 -9.93)"/><path class="cls-2" d="M324.76,73c-.2-.27-.38-.51-.55-.78h0C324.41,72.46,324.58,72.72,324.76,73Z" transform="translate(-6.31 -9.93)"/><path class="cls-2" d="M330.36,27.05v0a7.08,7.08,0,0,0-.67-.59l.4.33Z" transform="translate(-6.31 -9.93)"/><path class="cls-2" d="M434.92,154.46a0,0,0,0,1,0,0s-.11,0-.18,0l-.73.06C434.3,154.55,434.61,154.51,434.92,154.46Z" transform="translate(-6.31 -9.93)"/><path class="cls-2" d="M386.63,177.55l.11,0a.24.24,0,0,0-.14,0l-.06,0Z" transform="translate(-6.31 -9.93)"/><path class="cls-2" d="M387.15,177.71l-.24-.07-.13,0a.85.85,0,0,1,.22,0Z" transform="translate(-6.31 -9.93)"/><path class="cls-2" d="M389.29,178.52v0l-.33-.15Z" transform="translate(-6.31 -9.93)"/><path class="cls-2" d="M328.77,155.85l-.42-.42h0Z" transform="translate(-6.31 -9.93)"/><path class="cls-2" d="M344.17,192.34c-.22-1.26-.49-2.63-.79-4.08.08.42.17.81.26,1.21C343.84,190.48,344,191.45,344.17,192.34Z" transform="translate(-6.31 -9.93)"/><path class="cls-2" d="M344.54,194.49s0,0,0,.07a.08.08,0,0,1,0-.07,7,7,0,0,0-.11-.74C344.46,194,344.5,194.25,344.54,194.49Z" transform="translate(-6.31 -9.93)"/><path class="cls-2" d="M344.76,196c0-.07,0-.14,0-.22,0-.4-.11-.82-.18-1.26.07.44.14.86.2,1.26A.86.86,0,0,0,344.76,196Z" transform="translate(-6.31 -9.93)"/><path class="cls-2" d="M345.16,199.1h0a.82.82,0,0,0,0-.16c0-.08,0-.22-.05-.41s-.06-.62-.11-1c.09.57.13,1,.16,1.28A2.08,2.08,0,0,1,345.16,199.1Z" transform="translate(-6.31 -9.93)"/><path class="cls-2" d="M368.54,203.2v0c-.38,0-.77,0-1.19,0C367.77,203.24,368.16,203.22,368.54,203.2Z" transform="translate(-6.31 -9.93)"/><path class="cls-2" d="M409.38,152.5a1.05,1.05,0,0,1-.11.07,1.72,1.72,0,0,0-.37.22,2.25,2.25,0,0,0-.35.22,3.07,3.07,0,0,1,.35-.24s0,0,0,0l.33-.19C409.32,152.55,409.34,152.52,409.38,152.5Z" transform="translate(-6.31 -9.93)"/><path class="cls-2" d="M428.68,154.53l.84.06-.39,0A3.14,3.14,0,0,1,428.68,154.53Z" transform="translate(-6.31 -9.93)"/><path class="cls-2" d="M432.1,154.64c-.2,0-.4,0-.59,0-.38,0-.78,0-1.15,0a1.51,1.51,0,0,1-.31,0c.46,0,.95,0,1.43,0Z" transform="translate(-6.31 -9.93)"/><path class="cls-2" d="M370,68.32c-1.48-2.27-3-4.45-4.6-6.59.79,1.06,1.58,2.14,2.35,3.24S369.26,67.19,370,68.32Z" transform="translate(-6.31 -9.93)"/><path class="cls-2" d="M390.68,154.51a5.43,5.43,0,0,1-.57-.49l0,0,0,0h0C390.26,154.15,390.46,154.33,390.68,154.51Z" transform="translate(-6.31 -9.93)"/><path class="cls-1" d="M438.53,148.12s0,0,0,.06a.73.73,0,0,1,.17.18A1.11,1.11,0,0,0,438.53,148.12Zm-45.76,7.58-.46-.2-.22-.11a2.14,2.14,0,0,0,.22.13,5.73,5.73,0,0,0,.64.26A.49.49,0,0,1,392.77,155.7ZM261,127.63c-.51.64-1,1.3-1.48,2,1-1.37,2-2.64,3-3.81C262,126.39,261.53,127,261,127.63Zm177.51,20.49s0,0,0,.06a.73.73,0,0,1,.17.18A1.11,1.11,0,0,0,438.53,148.12Zm-45.76,7.58-.46-.2-.22-.11a2.14,2.14,0,0,0,.22.13,5.73,5.73,0,0,0,.64.26A.49.49,0,0,1,392.77,155.7ZM261,127.63c-.51.64-1,1.3-1.48,2,1-1.37,2-2.64,3-3.81C262,126.39,261.53,127,261,127.63ZM184.44,230.19H162.65a.68.68,0,0,0,.11.35h28.86Zm73.1-97.76c-.31.46-.62.93-.9,1.41.3-.48.61-1,.92-1.39s.6-.88.88-1.3C258.13,131.57,257.83,132,257.54,132.43Zm3.48-4.8c-.51.64-1,1.3-1.48,2,1-1.37,2-2.64,3-3.81C262,126.39,261.53,127,261,127.63Zm7.71,6.06v0a.66.66,0,0,1,.2-.11A1.76,1.76,0,0,0,268.73,133.69Zm59.64,21.74h0l.42.42Zm15.27,34c-.09-.4-.18-.79-.26-1.21.3,1.45.57,2.82.79,4.08C344,191.45,343.84,190.48,343.64,189.47Zm.88,5a.08.08,0,0,0,0,.07s0,0,0-.07Zm.22,1.33h0c0,.08,0,.15,0,.22A.86.86,0,0,1,344.74,195.82Zm.33,2.71c0,.19.05.33.05.41v-.17A1.69,1.69,0,0,1,345.07,198.53Zm4.48-68.94s.06,0,.08,0v0A.12.12,0,0,1,349.55,129.59Zm16.25-21-2.42,25.27,2.45-25.22S365.8,108.61,365.8,108.59ZM371,124.28c0-.13,0-.29-.07-.42.05.44.11.86.16,1.26C371,124.85,371,124.56,371,124.28Zm-.48-2.87c-.16-.68-.31-1.34-.47-2,.16.66.31,1.32.44,2s.27,1.37.38,2C370.74,122.8,370.63,122.14,370.48,121.41Zm16.3,56.19.13,0H387A.85.85,0,0,0,386.78,177.6Zm-.15,0h-.09l.06,0a.24.24,0,0,1,.14,0ZM390.06,154l0,0v0Zm2.71,1.72-.46-.2-.22-.11a2.14,2.14,0,0,0,.22.13,5.73,5.73,0,0,0,.64.26A.49.49,0,0,1,392.77,155.7Zm16.17-3s0,0,0,0v0a1.72,1.72,0,0,1,.37-.22A2.59,2.59,0,0,0,408.94,152.74Zm.33-.19v0a1.05,1.05,0,0,0,.11-.07S409.32,152.55,409.27,152.55Zm8.22,40.34c.58.33,1.15.64,1.74.94h.07C418.68,193.5,418.09,193.19,417.49,192.89Zm12.08-53.37.88.78v0C430.14,140,429.85,139.77,429.57,139.52Zm9,8.6s0,0,0,.06a.73.73,0,0,1,.17.18A1.11,1.11,0,0,0,438.53,148.12Zm2.21,2.49-.38-.42a5.19,5.19,0,0,1,.35.42c.36.41.69.81,1,1.23Zm142.7,28.31c1.1.55,2.11,1.05,3.11,1.52C585.55,179.93,584.52,179.45,583.44,178.92Zm25.23,1.8-.49.47c.29,0,.55,0,.84-.05C608.91,181,608.8,180.86,608.67,180.72ZM261,127.63c-.51.64-1,1.3-1.48,2,1-1.37,2-2.64,3-3.81C262,126.39,261.53,127,261,127.63ZM392.77,155.7l-.46-.2-.22-.11a2.14,2.14,0,0,0,.22.13,5.73,5.73,0,0,0,.64.26A.49.49,0,0,1,392.77,155.7Zm45.76-7.58s0,0,0,.06a.73.73,0,0,1,.17.18A1.11,1.11,0,0,0,438.53,148.12ZM261,127.63c-.51.64-1,1.3-1.48,2,1-1.37,2-2.64,3-3.81C262,126.39,261.53,127,261,127.63ZM392.77,155.7l-.46-.2-.22-.11a2.14,2.14,0,0,0,.22.13,5.73,5.73,0,0,0,.64.26A.49.49,0,0,1,392.77,155.7Zm45.76-7.58s0,0,0,.06a.73.73,0,0,1,.17.18A1.11,1.11,0,0,0,438.53,148.12Z" transform="translate(-6.31 -9.93)"/><path class="cls-1" d="M420.66,64.16c4.79-3.46,9.15-4.9,11-4.81a14.61,14.61,0,0,1,2.38.34,20.57,20.57,0,0,1,2.53.89c2.95,1,4.44,1.46,5.49,1.24,2.85-.6,4-3.69,5.11-3.21.14.06.28.19,1,2.72.56,2,.54,2.1.79,2.39a2.37,2.37,0,0,0,1.57.72c.66.09,1.3.18,1.95.31,4,.79,8.23,2.3,10.88,5.59A21,21,0,0,1,466,75.22a46,46,0,0,0-10.43-5.12,14.77,14.77,0,0,0-6.73-.7c-2.25.31-2.66,1-2.77,1.19-.74,1.46,1.63,3.29.9,4.5s-3.19.74-4.36.58a10.79,10.79,0,0,1-3.28-1.06c-1.49-.7-2.41-1.14-2.42-1.73,0-1.06,2.89-1.12,3.56-3,.52-1.49-.69-3.07-.79-3.2-.77-1-1.84-1.33-4-1.8A37.38,37.38,0,0,0,429,63.79,42.12,42.12,0,0,0,420.66,64.16Z" transform="translate(-6.31 -9.93)"/><path class="cls-1" d="M436,99.28c.11-.45.18-.91.54-1.06s1.06.34,1.1.37a9.92,9.92,0,0,1-.64-3.07c0-.22.07-1-.38-1.29l0,0c-.45-.27-1.12.21-2.34,1-1,.64-2.15,1.35-3.35,2.12.08,0,.77,0,1,.32s0,1.25-.92,1.78a2.45,2.45,0,0,1,.28,2.06c-.55,1.38-3.15,2.21-3.17,3,0,.44.65.79,1.72,1.35a7.79,7.79,0,0,0,2.37.89c.85.16,2.7.5,3.22-.28s-.64-3.17-.05-4.21a1.45,1.45,0,0,1,.84-.54A4,4,0,0,1,436,99.28Z" transform="translate(-6.31 -9.93)"/><path class="cls-1" d="M447.92,98.07a.68.68,0,0,0-.4.05,12,12,0,0,1-3.7.72,13.56,13.56,0,0,1-4.6-.7,14.7,14.7,0,0,1-2.4-1,11.22,11.22,0,0,1-1-.6,4.83,4.83,0,0,0-1,1.86,3.58,3.58,0,0,0,.84,3.25c2.85.49,6,.7,8.75-.39A8.73,8.73,0,0,0,447,99.58C447.09,99.44,448.5,98.24,447.92,98.07Z" transform="translate(-6.31 -9.93)"/><path class="cls-1" d="M433.22,100.34a.86.86,0,0,1,.23,0,3.58,3.58,0,0,0,.29-1.19,7.71,7.71,0,0,0-.36-3.24l-.1,0c-2,.77-4.16-.61-8.66-3-.6-.32-1.6-.86-2.88-1.52a11.51,11.51,0,0,0,2,3.94,13.35,13.35,0,0,0,5,3.73S431.34,100.48,433.22,100.34Z" transform="translate(-6.31 -9.93)"/><path class="cls-1" d="M643.39,398.84l-2.12,17.5q-11.4-.34-23.58-.34-13,0-20,.25l-.17-4.31q3.21-.68,4.4-2.07a9.12,9.12,0,0,0,1.69-4.35q.84-5,.84-19.78,0-14.46-1.1-20.45l-6-1.69.51-4.32q9.39.25,19.52.26,12,0,21.73-.34L641,375.09l-4.31.51a17,17,0,0,0-6.68-9.89H616.09c0,.11,0,.31-.05.59s0,.48,0,.59a130.9,130.9,0,0,0-1,16.74l17.58-.43-1.1,7.44L615,389.37q0,15.64.76,20.37h17.07a17.55,17.55,0,0,0,3.89-4.9,20.28,20.28,0,0,0,2.37-6.51Z" transform="translate(-6.31 -9.93)"/><path class="cls-1" d="M687,400.87a43.77,43.77,0,0,0,5.67,6.76,16.65,16.65,0,0,0,4.14,3,17.89,17.89,0,0,0,4.18,1.14v4.48q-4.39-.25-8.37-.25t-8.11.25a212.45,212.45,0,0,1-15.38-24.59c-1,.11-2.45.22-4.48.33q0,13.44.93,18.43l7.1,1.44-.51,4.39q-4.05-.25-12.34-.25t-12.51.25l-.17-4.31a8.66,8.66,0,0,0,4.36-1.94,8,8,0,0,0,1.73-4.15q.84-5,.84-20.11,0-14.46-1.09-20.45l-6-1.69.51-4.32c2,.12,5.78.17,11.41.17,2.09,0,4.35,0,6.81-.12s4.26-.13,5.45-.13q9.46,0,14.83,3.89t5.37,11.32q0,8.55-9.55,13.19a10.85,10.85,0,0,1-1.48.76q-1,.42-1.14.51Q683.88,396.39,687,400.87Zm-18.38-15.55a24.64,24.64,0,0,0,4.56-.34,9.79,9.79,0,0,0,6.51-9.8,8.85,8.85,0,0,0-3-7.06q-3-2.58-8.11-2.58h-2.79a7.45,7.45,0,0,0-.17,1.35,121.6,121.6,0,0,0-1,18.26C666.49,385.26,667.82,385.32,668.66,385.32Z" transform="translate(-6.31 -9.93)"/><path class="cls-1" d="M758.76,363.6a8.83,8.83,0,0,0-4.73,1.94,7.75,7.75,0,0,0-1.78,4.48,147.76,147.76,0,0,0-.59,15.8V416l-6.25.08a441.13,441.13,0,0,0-30.18-39.72V387q0,15.72,1.1,23.49l6.51,1.53-.51,4.22c-2.7-.17-6-.25-9.88-.25-4.57,0-8.2.08-10.91.25l-.17-4.31a9.94,9.94,0,0,0,4.57-2,8.19,8.19,0,0,0,1.86-4.35q.93-5.4.93-18.42,0-14.55-1.19-21.89l-6.25-1.69.51-4.15h14.45L745,396.3c.11-3.6.17-6.76.17-9.46q0-15-1-21.55l-6.42-1.86.5-4.15q4.32.25,10.65.26,6.18,0,9.72-.26Z" transform="translate(-6.31 -9.93)"/><path class="cls-1" d="M808.21,398.84l-2.11,17.5q-11.42-.34-23.58-.34-13,0-20,.25l-.17-4.31a7.78,7.78,0,0,0,4.39-2.07,9.12,9.12,0,0,0,1.69-4.35q.84-5,.85-19.78,0-14.46-1.1-20.45l-6-1.69.5-4.32q9.39.25,19.53.26,12,0,21.72-.34l1.94,15.89-4.31.51a16.93,16.93,0,0,0-6.67-9.89h-14c0,.11,0,.31,0,.59s0,.48,0,.59a128.63,128.63,0,0,0-1,16.74l17.58-.43-1.1,7.44-16.48-1.27q0,15.64.76,20.37h17.07a17.55,17.55,0,0,0,3.89-4.9,19.82,19.82,0,0,0,2.37-6.51Z" transform="translate(-6.31 -9.93)"/><path class="cls-1" d="M456.4,506.51A38.55,38.55,0,0,1,442,509.38q-14,0-22.6-9.6t-8.63-25.63q0-24.54,21.57-33.07a38.87,38.87,0,0,1,14.48-2.77q14,0,22.6,9.55t8.63,25.57Q478.08,498.09,456.4,506.51Zm.77-52.18q-5.79-7.5-16.79-7.5c-1.3,0-2.29,0-3,.1a19.4,19.4,0,0,0-8.47,9.4q-3,6.53-3,16.08,0,13.35,5.8,20.85t16.8,7.49c1.3,0,2.29,0,3-.1a19.87,19.87,0,0,0,8.43-9.4q3.08-6.53,3.08-16.07Q463,461.83,457.17,454.33Z" transform="translate(-6.31 -9.93)"/><path class="cls-1" d="M538.58,447.7q-2.48,2.12-6.58,9.09t-12.84,24.35q.21,13.75,1.44,20.13l7.6,2-.61,5.24q-4.83-.31-14.79-.31-9.34,0-14.79.31l-.21-5.24a11,11,0,0,0,5.14-2.31,8.61,8.61,0,0,0,2.15-4.57,91.85,91.85,0,0,0,1-13.46q-13.46-24-23.52-36.66l-6.06-1.75.62-5.24q4,.31,15.5.31,9.15,0,15.93-.31l.2,5.34a12.4,12.4,0,0,0-5.08,1.18,3,3,0,0,0-1.39,2.72q0,1.86,3.75,8.89t9.09,15.15q8.52-16.23,12.74-26.29l-7.3-2,.62-5q4.51.31,12.63.31,7.9,0,11.3-.31l.31,5.34A16.12,16.12,0,0,0,538.58,447.7Z" transform="translate(-6.31 -9.93)"/><path class="cls-1" d="M614.89,503.22l-.61,5.24q-5.76-.31-16.13-.31-9,0-16.12.31l-.21-5.34a19.76,19.76,0,0,0,6.27-1.29,3,3,0,0,0,1.74-2.92q0-2.16-3-10H559.74q-2.46,6.48-4.52,12.53l7.91,1.85-.62,5.14q-4.51-.31-13.25-.31-7.29,0-12.32.31l-.31-5.34a13.26,13.26,0,0,0,7.91-4.42q4.62-5.24,14-28,3.9-9.45,12.63-31.33h9.55q15.4,38.12,27.53,62.14Zm-31.12-22.29q-4.41-10.68-10.88-25.06l-10.17,25.06Z" transform="translate(-6.31 -9.93)"/><path class="cls-1" d="M673,491.71c0,2.4.18,6,.52,10.79a137.65,137.65,0,0,1-16.85,5.44,54.42,54.42,0,0,1-12.22,1.44q-14.07,0-22.65-9.45t-8.57-25.78q0-24.54,21.57-33.07a40.48,40.48,0,0,1,15.09-2.77q13.67,0,22,3.9a31.33,31.33,0,0,1,.42,5.75,53.84,53.84,0,0,1-1.54,13.56L665,460.8a12.59,12.59,0,0,0-4.93-10.58q-4.92-3.8-13.66-3.8a52.11,52.11,0,0,0-6.57.51,19.4,19.4,0,0,0-8.47,9.4q-3,6.53-3,16.08,0,13.14,5.85,20.43t15.92,7.3a35.78,35.78,0,0,0,9.24-1.23,64.8,64.8,0,0,0,.72-9.56,55.76,55.76,0,0,0-.3-6l-8.63-2.25.72-5.45q5.34.31,11.29.31t11.71-.31l1,3.08Q673,483,673,491.71Z" transform="translate(-6.31 -9.93)"/><path class="cls-1" d="M738.16,487.3l-2.57,21.26q-13.86-.4-28.66-.41-15.81,0-24.34.31l-.2-5.24q3.9-.83,5.34-2.52a11,11,0,0,0,2-5.29q1-6.06,1-24,0-17.56-1.34-24.86l-7.29-2,.62-5.24q11.4.31,23.72.31,14.6,0,26.4-.41l2.36,19.31-5.24.61a20.57,20.57,0,0,0-8.11-12H705a6.38,6.38,0,0,1-.05.71c0,.35,0,.59,0,.72a156.66,156.66,0,0,0-1.23,20.34L725,468.3l-1.33,9-20-1.55q0,19,.92,24.76h20.75a21.42,21.42,0,0,0,4.72-6,24.43,24.43,0,0,0,2.88-7.91Z" transform="translate(-6.31 -9.93)"/><path class="cls-1" d="M791.21,489.76a52.52,52.52,0,0,0,6.88,8.22,20.56,20.56,0,0,0,5,3.65,22.12,22.12,0,0,0,5.09,1.38v5.45q-5.34-.31-10.17-.31c-3.29,0-6.57.1-9.86.31a258.07,258.07,0,0,1-18.69-29.89c-1.17.14-3,.27-5.45.41q0,16.33,1.13,22.39l8.63,1.75-.61,5.34q-4.94-.31-15-.31t-15.2.31l-.21-5.24q3.81-.83,5.29-2.36a9.55,9.55,0,0,0,2.11-5q1-6.06,1-24.44,0-17.56-1.34-24.86l-7.29-2,.61-5.24q3.6.21,13.87.21,3.8,0,8.27-.16t6.62-.15q11.5,0,18,4.72t6.52,13.77q0,10.36-11.61,16a12.42,12.42,0,0,1-1.79.92c-.79.34-1.25.55-1.39.62Q787.37,484.31,791.21,489.76Zm-22.34-18.89a29,29,0,0,0,5.55-.42q7.91-3.29,7.91-11.91a10.79,10.79,0,0,0-3.6-8.58q-3.59-3.12-9.86-3.13h-3.39a9.41,9.41,0,0,0-.2,1.64q-1.23,7.39-1.24,22.19C766.24,470.8,767.84,470.87,768.87,470.87Z" transform="translate(-6.31 -9.93)"/><path class="cls-1" d="M40.5,531.67,26.39,564.06H20.47L6.31,531.67h6.52l10.78,25,10.88-25Z" transform="translate(-6.31 -9.93)"/><path class="cls-1" d="M87.2,559v5H62.91V531.67H86.56v5.05H68.93v8.42H84.57v5H68.93V559Z" transform="translate(-6.31 -9.93)"/><path class="cls-1" d="M133.13,564.06l-6.61-9.48c-.42,0-.84,0-1.25,0H118v9.44h-6V531.67h13.33c8.51,0,13.79,4.35,13.79,11.52a10.35,10.35,0,0,1-6.9,10.23l7.45,10.64ZM125,536.76h-7v12.91h7c5.28,0,8-2.4,8-6.48S130.27,536.76,125,536.76Z" transform="translate(-6.31 -9.93)"/><path class="cls-1" d="M192.76,531.67v32.39h-4.95L170,542.13v21.93h-6V531.67h5l17.86,21.94V531.67Z" transform="translate(-6.31 -9.93)"/><path class="cls-1" d="M243.83,559v5H219.54V531.67h23.64v5.05H225.55v8.42h15.64v5H225.55V559Z" transform="translate(-6.31 -9.93)"/><path class="cls-1" d="M329.92,531.67l-14.11,32.39h-5.92l-14.16-32.39h6.52l10.78,25,10.88-25Z" transform="translate(-6.31 -9.93)"/><path class="cls-1" d="M348.58,547.87c0-9.58,7.4-16.66,17.44-16.66s17.45,7,17.45,16.66-7.41,16.65-17.45,16.65S348.58,557.45,348.58,547.87Zm28.83,0A11.39,11.39,0,1,0,366,559.25,11,11,0,0,0,377.41,547.87Z" transform="translate(-6.31 -9.93)"/><path class="cls-1" d="M420.16,552.63v11.43h-6V552.73l-12.73-21.06h6.43l9.49,15.78,9.58-15.78h5.92Z" transform="translate(-6.31 -9.93)"/><path class="cls-1" d="M472.69,556.57h-16.2l-3.19,7.49h-6.2l14.57-32.39h5.93l14.62,32.39h-6.29Zm-2-4.72-6.11-14.16-6.06,14.16Z" transform="translate(-6.31 -9.93)"/><path class="cls-1" d="M525.28,547.5H531v12.91a20.51,20.51,0,0,1-12.68,4.11c-10,0-17.45-7-17.45-16.65s7.41-16.66,17.54-16.66c5.41,0,10,1.8,13,5.27l-3.79,3.71a12,12,0,0,0-8.93-3.71c-6.9,0-11.76,4.68-11.76,11.39s4.86,11.38,11.71,11.38a13,13,0,0,0,6.66-1.67Z" transform="translate(-6.31 -9.93)"/><path class="cls-1" d="M581.25,559v5H557V531.67H580.6v5.05H563v8.42h15.64v5H563V559Z" transform="translate(-6.31 -9.93)"/><path class="cls-1" d="M627.18,564.06l-6.62-9.48c-.41,0-.83,0-1.25,0H612v9.44h-6V531.67h13.32c8.52,0,13.79,4.35,13.79,11.52a10.36,10.36,0,0,1-6.89,10.23l7.45,10.64ZM619,536.76h-7v12.91h7c5.27,0,8-2.4,8-6.48S624.31,536.76,619,536.76Z" transform="translate(-6.31 -9.93)"/><path class="cls-1" d="M689.58,531.67h6V559h16.94v5.09H689.58Z" transform="translate(-6.31 -9.93)"/><path class="cls-1" d="M735.24,531.67h6V559h16.94v5.09h-23Z" transform="translate(-6.31 -9.93)"/><path class="cls-1" d="M778,547.87c0-9.67,7.4-16.66,17.35-16.66,5.28,0,9.81,1.9,12.82,5.41l-3.89,3.66a11.35,11.35,0,0,0-8.65-3.8c-6.71,0-11.57,4.72-11.57,11.39s4.86,11.38,11.57,11.38a11.26,11.26,0,0,0,8.65-3.84l3.89,3.7c-3,3.52-7.54,5.41-12.86,5.41C785.44,564.52,778,557.54,778,547.87Z" transform="translate(-6.31 -9.93)"/></svg>